<!-- Generator: Adobe Illustrator 18.1.1, SVG Export Plug-In  -->
<svg version="1.1"
	 xmlns="http://www.w3.org/2000/svg" xmlns:xlink="http://www.w3.org/1999/xlink" xmlns:a="http://ns.adobe.com/AdobeSVGViewerExtensions/3.0/"
	 x="0px" y="0px" width="542.012px" height="195.105px" viewBox="0 0 542.012 195.105" enable-background="new 0 0 542.012 195.105"
	 xml:space="preserve">
<defs>
</defs>
<g>
	<g>
		<g>
			<path fill="#F5BA3D" d="M104.498,98.213c0.223,0.006,0.442-0.025,0.663-0.051L93.217,68.22c-1.109-2.781-3.372-4.863-6.118-5.78
				l13.231,32.875C101.018,97.025,102.654,98.162,104.498,98.213z"/>
			<path fill="#FFFFFF" d="M66.486,42.776c3.655,0,6.628-2.974,6.628-6.628s-2.973-6.628-6.628-6.628
				c-3.655,0-6.628,2.974-6.628,6.628S62.831,42.776,66.486,42.776z M66.01,33.96c1.209-0.263,2.402,0.503,2.665,1.713
				c0.263,1.208-0.505,2.401-1.713,2.664c-1.209,0.263-2.402-0.504-2.665-1.712C64.034,35.415,64.801,34.222,66.01,33.96z"/>
			<path fill="#FFFFFF" d="M39.694,35.138c-3.655,0-6.628,2.974-6.628,6.628c0,3.654,2.973,6.628,6.628,6.628
				s6.628-2.974,6.628-6.628C46.322,38.112,43.349,35.138,39.694,35.138z M40.171,43.512c-1.209,0.263-2.402-0.503-2.665-1.713
				c-0.263-1.208,0.504-2.401,1.713-2.664c1.209-0.263,2.401,0.504,2.664,1.712C42.146,42.056,41.38,43.249,40.171,43.512z"/>
			<path fill="#ABC8E9" d="M60.799,78.782c-2.579,3.572-3.392,6.399-3.4,6.428l-0.272-0.075c1.927,1.573,4.374,5.398,5.547,7.731
				c2.365,1.069,4.242,2.283,5.913,3.651c-2.691-6.193-6.428-15.965-4.82-19.261c0.349-0.716,0.924-1.18,1.662-1.341
				c1.998-0.438,3.773-0.331,5.398,0.364l-2.48-4.464C65.228,74.327,62.008,77.107,60.799,78.782z"/>
			<path fill="#ABC8E9" d="M56.653,100.989c-0.113,0.065-0.227,0.116-0.34,0.178c0.005,2.101,0.782,10.991,12.61,14.686
				c0.543,0.17,1.071,0.32,1.59,0.462C64.28,111.962,59.029,104.629,56.653,100.989z"/>
			<path fill="#ABC8E9" d="M59.178,77.612c1.363-1.889,4.88-4.919,8.183-7.57l-0.207-0.373c-0.931,1.308-2.664,2.715-5.268,4.259
				c-1.508,0.895-2.687,1.339-3.618,1.367l-3.683,8.689c0.327,0.047,0.668,0.148,1.016,0.282
				C55.928,83.302,56.927,80.728,59.178,77.612z"/>
			<path fill="#FFEC5F" d="M71.538,24.513c0.733-2.828-1.05-5.147-3.073-7.762c-0.704-0.91-1.417-1.832-2.03-2.795
				c-0.168,1.056-0.378,2.1-0.577,3.091c-0.124,0.615-0.245,1.215-0.349,1.789l-0.475,2.602l-1.365-2.267
				c-0.615-1.019-1.391-2.944-2.114-4.931c-0.089,0.41-0.184,0.821-0.277,1.231c-0.285,1.247-0.579,2.537-0.565,3.186l0.045,2.18
				C64.565,20.919,68.271,22.19,71.538,24.513z"/>
			<path fill="#FFEC5F" d="M36.183,26.623c7.322-3.676,15.002-4.903,22.21-5.684c0.505-0.055,1.008-0.08,1.511-0.094l-1.037-1.631
				c-0.319-0.501-0.653-0.997-0.989-1.497c-0.685-1.017-1.394-2.07-1.994-3.194c-0.24-0.45-0.461-1.004-0.694-1.591
				c-0.221-0.553-0.485-1.218-0.773-1.769c-0.984,2.059-1.758,4.196-1.703,6.274l0.048,1.809l-1.557-0.923
				c-1.367-0.81-3.167-3.215-4.283-5.453c-0.06,0.16-0.119,0.32-0.178,0.478c-0.84,2.259-1.634,4.393-1.702,6.841l-0.057,2.059
				l-1.583-1.318c-1.999-1.667-3.357-3.586-4.67-5.441c-0.021-0.029-0.042-0.059-0.064-0.09c-0.007,1.866,0.108,3.725,0.536,5.433
				l0.653,2.608l-2.199-1.548c-1.759-1.238-3.379-2.673-4.937-4.121c0.01,0.965,0.05,1.932,0.089,2.881
				c0.066,1.591,0.134,3.234,0.065,4.871l-0.065,1.565l-1.393-0.719c-1.764-0.911-3.382-2.163-4.648-3.564
				c-0.007,0.107-0.014,0.214-0.021,0.319c-0.127,1.896-0.247,3.686,0.024,5.466c0.399,2.626,1.231,3.578,3.233,4.226
				C31.568,30.195,33.591,27.926,36.183,26.623z"/>
			<path fill="#FFFFFF" d="M72.397,68.645c-0.749,0.572-1.589,1.221-2.469,1.913l2.373,4.287
				C71.783,72.8,71.815,70.676,72.397,68.645z"/>
			<path fill="#FFFFFF" d="M85.096,113.91l0.514,1.783l2.468-0.979l-4.52-11.33C84.497,107.962,84.915,111.587,85.096,113.91z"/>
			<path fill="#ABC8E9" d="M81.461,119.669l0.008,0.114c-0.052,0.003-0.38,0.024-0.95,0.024c-1.876,0-6.366-0.228-12.192-2.047
				c-11.289-3.524-13.793-11.678-14.028-15.671c-2.4,0.864-4.697,0.895-6.415,0.006c-0.25-0.129-0.508-0.302-0.766-0.498
				l-8.57,20.217l43.553,1.802l3.682-0.105l-1.449-5.025C83.701,119.096,82.738,119.49,81.461,119.669z"/>
			<path fill="#F47D20" d="M104.444,100.212c-2.641-0.071-4.983-1.701-5.97-4.15L84.759,61.983
				c-0.188-0.016-0.372-0.052-0.563-0.058c-1.361-0.036-2.696,0.203-3.972,0.712c-2.481,0.989-4.427,2.886-5.482,5.34
				c-1.055,2.454-1.09,5.172-0.101,7.652l16.674,41.798c1.482,3.715,5.023,6.187,9.022,6.295c1.359,0.037,2.696-0.202,3.971-0.711
				c2.482-0.991,4.428-2.887,5.482-5.341c1.055-2.454,1.09-5.173,0.101-7.653l-3.966-9.939
				C105.44,100.178,104.944,100.225,104.444,100.212z"/>
			<path fill="#ECC19C" d="M77.932,150.966L92.9,181.218l-0.751,0.483c-8.301,5.344-10.546,8.584-9.947,9.734
				c0.562,1.077,2.06,1.67,4.22,1.67c2.029,0,4.491-0.551,6.931-1.552l0.846-0.348l0.012,0.024l13.426-7.003l-19.682-37.739
				L77.932,150.966z"/>
			<path fill="#ECC19C" d="M80.959,47.989c0.365-2.155,0.538-2.792,2.073-3.15c0.375-0.088,0.842-0.196,1.555-0.529
				c1.482-0.691,2.464-2.151,2.503-3.719c0.034-1.37-0.577-2.291-1.095-2.821c-1.335-1.367-3.673-1.731-5.382-0.773l-0.002,0.001
				l-0.975-1.747c-0.508,0.285-0.585,0.883-0.444,1.188c-0.256-0.555-3.339-4.974-5.398-7.246c-4.17-4.604-9.639-6.869-15.185-6.265
				c-7.022,0.76-14.49,1.95-21.528,5.482c-5.281,2.653-8.516,10.866-9.363,17.599c0.144,0.244,0.147,0.487,0.145,0.565
				c-0.005,0.124-0.044,0.417-0.279,0.66l-0.079,0.772l-1.22-0.469c-2.135-0.82-3.775-0.613-4.698,0.629
				c-0.524,0.705-0.812,1.715-0.812,2.846c0,2.406,1.284,4.896,3.432,4.896c0.902,0,1.915-0.414,3.01-1.23l1.059-0.79l0.473,1.234
				C32.062,63.78,40.724,68.95,51.917,68.95c5.948,0,11.826-1.515,16.55-4.264C75.18,60.779,79.85,54.537,80.959,47.989z
				 M31.066,41.766c0-4.758,3.871-8.628,8.628-8.628c2.537,0,4.815,1.107,6.395,2.856c0.847-1.354,2.583-2.431,4.966-2.979
				c2.573-0.595,5.383-0.43,7.149,0.731c1.043-3.592,4.357-6.226,8.281-6.226c4.757,0,8.628,3.87,8.628,8.628
				s-3.871,8.628-8.628,8.628c-4.688,0-8.507-3.76-8.618-8.422c-0.556-1.635-3.707-2.002-6.364-1.39
				c-2.139,0.491-4.165,1.676-3.97,3.22c0.501,1.093,0.788,2.304,0.788,3.582c0,4.758-3.871,8.628-8.628,8.628
				S31.066,46.524,31.066,41.766z M58.359,56.731c-1.1,0.269-2.159,0.384-3.165,0.384c-5.901,0-9.995-3.961-10.194-4.157
				l1.403-1.425c0.049,0.048,5.027,4.831,11.482,3.255c9.159-2.234,8.271-6.943,8.261-6.99l1.956-0.416
				C68.16,47.653,69.383,54.042,58.359,56.731z"/>
			<path fill="#ECC19C" d="M18.308,176.175l-0.829-0.387c-6.098-2.841-11.075-4.471-13.654-4.471c-0.816,0-1.378,0.165-1.545,0.453
				c-1.222,2.115,1.546,6.381,6.301,9.71l0.747,0.523l-0.017,0.03l13.789,7.957l22.426-38.851l-10.385-3.992L18.308,176.175z"/>
			<path fill="#FFFFFF" d="M58.124,73.302c0.24,0.008,0.996-0.06,2.741-1.095c3.173-1.881,4.379-3.186,4.834-3.94
				c-2.939,1.212-6.14,2.031-9.436,2.419l1.86,2.448L58.124,73.302z"/>
			<circle fill="#594A42" cx="39.695" cy="41.323" r="2.24"/>
			<circle fill="#594A42" cx="66.485" cy="36.148" r="2.24"/>
			<path fill="#594A42" d="M66.146,47.798c0.01,0.047,0.898,4.756-8.261,6.99c-6.455,1.576-11.433-3.207-11.482-3.255L45,52.958
				c0.199,0.196,4.293,4.157,10.194,4.157c1.005,0,2.064-0.115,3.165-0.384c11.024-2.689,9.801-9.078,9.744-9.35L66.146,47.798z"/>
			<polygon fill="#801D7F" points="38.864,123.828 29.33,142.772 52.344,151.619 62.686,135.17 71.701,151.559 92.141,142.429 
				81.534,125.595 			"/>
			<path fill="#ECC19C" d="M74.452,102.18c3.17,2.987,6.26,6.016,8.318,8.742c-0.537-4.344-1.687-10.808-4.154-18.431
				c-0.069-0.214-0.138-0.415-0.207-0.623l-8.454,2.731c0.865,2.055,1.747,4.017,2.552,5.701
				C72.89,100.706,73.579,101.357,74.452,102.18z"/>
			<path fill="#FFDD00" d="M65.856,77.869c-0.092,0.021-0.191,0.058-0.292,0.265c-0.938,1.922,1.128,8.42,3.625,14.611l8.57-2.769
				C73.272,77.439,69.425,77.088,65.856,77.869z"/>
			<path fill="#ECC19C" d="M48.803,100.319c1.424,0.737,3.579,0.507,5.805-0.529c0.27-0.336,0.646-0.377,0.77-0.379
				c0.345-0.189,0.689-0.396,1.032-0.623l0.852-0.565l0.546,0.863c5.634,8.905,14.205,18.346,21.626,18.69
				c0.007,0.001,0.013,0.001,0.021,0.001c0.235,0.011,0.47,0.012,0.703,0.004c1.707-0.055,2.777-0.43,3.015-1.057
				c0.999-2.64-7.058-10.231-10.09-13.089c-0.97-0.914-1.736-1.636-2.146-2.086c-2.668-2.929-5.155-5.116-9.253-6.938l-0.347,0.132
				c-0.835-2.214-4.152-7.352-5.819-8.316c-0.906-0.524-1.672-0.638-1.999-0.289c-0.423,0.446-0.368,1.69,0.566,3.117l2.383,3.639
				l-3.732-2.232c-1.278-0.764-3.054-1.53-4.252-0.822c-1.225,0.72-1.873,2.925-1.777,6.05
				C46.771,98.144,47.478,99.635,48.803,100.319z"/>
			<path fill="#594A42" d="M48.322,41.766c0-1.278-0.287-2.489-0.788-3.582c-0.195-1.544,1.831-2.729,3.97-3.22
				c2.658-0.612,5.808-0.245,6.364,1.39c0.111,4.662,3.93,8.422,8.618,8.422c4.757,0,8.628-3.87,8.628-8.628
				s-3.871-8.628-8.628-8.628c-3.923,0-7.238,2.635-8.281,6.226c-1.766-1.161-4.576-1.326-7.149-0.731
				c-2.384,0.549-4.119,1.625-4.966,2.979c-1.58-1.749-3.858-2.856-6.395-2.856c-4.757,0-8.628,3.87-8.628,8.628
				s3.871,8.628,8.628,8.628S48.322,46.524,48.322,41.766z M66.486,29.52c3.655,0,6.628,2.974,6.628,6.628s-2.973,6.628-6.628,6.628
				c-3.655,0-6.628-2.974-6.628-6.628S62.831,29.52,66.486,29.52z M39.694,48.394c-3.655,0-6.628-2.974-6.628-6.628
				c0-3.654,2.973-6.628,6.628-6.628s6.628,2.974,6.628,6.628C46.322,45.421,43.349,48.394,39.694,48.394z"/>
			<path fill="#594A42" d="M110.448,99.111c-3.19-0.426-4.31-4.475-4.32-4.516l-0.213,0.057l-10.84-27.174
				c-1.537-3.851-4.917-6.582-8.902-7.34c-0.627-0.119-1.27-0.194-1.922-0.212c-0.105-0.003-0.21,0.007-0.315,0.008
				c-1.525-0.002-3.022,0.274-4.452,0.845c-2.084,0.831-3.843,2.205-5.152,3.959l-0.021-0.029c-0.217,0.159-2.556,1.871-5.365,4.075
				l-0.892-1.611c0.479-0.246,0.96-0.49,1.42-0.758c7.328-4.266,12.232-10.859,13.457-18.092c0.068-0.401,0.203-1.198,0.31-1.479
				c0.07-0.021,0.151-0.035,0.246-0.058c0.416-0.097,1.044-0.243,1.946-0.664c2.164-1.01,3.599-3.161,3.656-5.482
				c0.04-1.612-0.55-3.127-1.662-4.267c-1.721-1.764-4.549-2.404-6.897-1.534c-1.476-2.476-5.205-6.936-5.253-6.99
				c-0.658-0.727-1.35-1.394-2.064-2.012c1.593-4.139-0.914-7.401-3.166-10.311c-1.619-2.092-3.148-4.067-3.316-6.277l-1.994,0.152
				c0.141,1.852-0.205,4.003-0.597,6.025c-0.648-1.637-1.422-3.825-2.26-6.41l-1.902,0.617c0.341,1.051-0.232,3.561-0.65,5.393
				c-0.074,0.324-0.146,0.64-0.213,0.942c-0.519-0.778-1.031-1.576-1.465-2.388c-0.188-0.352-0.389-0.856-0.601-1.39
				c-0.556-1.396-1.186-2.976-2.274-3.7l-0.927-0.616l-0.513,0.988c-1.066,2.051-2.065,4.224-2.452,6.46
				c-1.352-1.638-2.819-4.26-2.984-5.606l-0.582-4.745l-1.369,4.581c-0.317,1.06-0.703,2.097-1.076,3.099
				c-0.636,1.711-1.289,3.466-1.617,5.389c-1.081-1.153-1.966-2.404-2.888-3.707c-0.573-0.81-1.166-1.646-1.824-2.486L36.88,9.728
				l-0.124,2.69c-0.095,2.067-0.159,4.22,0.062,6.309c-1.406-1.161-2.749-2.429-4.061-3.668l-1.866-1.76l-0.122,2.144
				c-0.101,1.776-0.027,3.564,0.044,5.291c0.041,0.989,0.083,2.001,0.09,3.007c-1.774-1.195-3.289-2.771-4.13-4.338l-1.887-3.518
				l0.006,3.992c0.001,1.024-0.07,2.087-0.139,3.113c-0.128,1.919-0.262,3.903,0.042,5.9c0.519,3.405,1.914,4.858,4.244,5.709
				c-1.792,3.633-2.807,7.654-3.242,10.685c-0.641-0.161-1.253-0.243-1.83-0.243c-3.588,0-5.194,2.998-5.194,5.97
				c0,3.39,2.032,6.896,5.432,6.896c1.013,0,2.068-0.312,3.147-0.929c3.919,8.773,13.002,13.971,24.564,13.971
				c0.664,0,1.326-0.027,1.987-0.063l2.274,2.991c0.049,0.194,0.137,0.398,0.267,0.59l-4.354,10.27
				c-0.009,0.01-0.02,0.016-0.029,0.025c-0.451,0.477-0.687,1.112-0.753,1.821l-0.482,1.138c-1.271-0.284-2.402-0.169-3.361,0.394
				c-1.93,1.134-2.885,3.844-2.763,7.836c0.053,1.724,0.439,2.987,0.966,3.938l-9.547,22.522l1.003,0.425l-10.574,21.01l6.7,2.575
				l-15.757,27.171c-3.851-1.753-10.027-4.275-13.668-4.275c-1.617,0-2.72,0.489-3.276,1.453c-1.745,3.02,0.774,7.801,6.144,11.813
				l17.139,10.14l23.584-40.856l5.746,2.209l9.41-14.965l8.265,15.024l5.268-2.354l14.213,28.725
				c-11.966,7.863-10.408,10.856-9.888,11.854c0.924,1.77,3.052,2.745,5.994,2.745c2.073,0,4.421-0.472,6.837-1.368l17.076-8.662
				l-20.551-39.403l5.278-2.358L83.88,125.566l4.54-0.13l-2.253-7.812l2.652-1.053l0.637,1.597
				c1.778,4.458,6.027,7.423,10.826,7.553c1.633,0.044,3.236-0.243,4.766-0.854c6.146-2.451,9.151-9.445,6.7-15.592l-3.511-8.8
				c0.575,0.295,1.216,0.52,1.946,0.617c0.35,0.047,0.689,0.068,1.018,0.068c3.832,0,6.205-2.928,6.312-3.062l-1.564-1.247
				C115.86,96.963,113.738,99.549,110.448,99.111z M93.217,68.22l11.944,29.942c-0.22,0.026-0.44,0.057-0.663,0.051
				c-1.844-0.051-3.48-1.188-4.169-2.899L87.099,62.439C89.845,63.356,92.107,65.438,93.217,68.22z M72.397,68.645
				c-0.582,2.03-0.614,4.154-0.097,6.2l-2.373-4.287C70.808,69.866,71.647,69.218,72.397,68.645z M69.189,92.745
				c-2.497-6.191-4.562-12.689-3.625-14.611c0.101-0.207,0.2-0.244,0.292-0.265c3.568-0.781,7.415-0.43,11.903,12.107L69.189,92.745
				z M78.408,91.868c0.069,0.208,0.138,0.409,0.207,0.623c2.467,7.623,3.617,14.087,4.154,18.431
				c-2.058-2.727-5.148-5.755-8.318-8.742c-0.873-0.822-1.562-1.474-1.945-1.879c-0.805-1.685-1.688-3.646-2.552-5.701
				L78.408,91.868z M68.347,71.816l2.48,4.464c-1.624-0.695-3.4-0.803-5.398-0.364c-0.738,0.161-1.312,0.625-1.662,1.341
				c-1.608,3.296,2.129,13.067,4.82,19.261c-1.671-1.368-3.548-2.582-5.913-3.651c-1.173-2.333-3.621-6.158-5.547-7.731l0.272,0.075
				c0.008-0.028,0.821-2.855,3.4-6.428C62.008,77.107,65.228,74.327,68.347,71.816z M61.277,15.472
				c0.093-0.41,0.188-0.821,0.277-1.231c0.723,1.986,1.5,3.911,2.114,4.931l1.365,2.267l0.475-2.602
				c0.104-0.574,0.225-1.174,0.349-1.789c0.199-0.991,0.409-2.035,0.577-3.091c0.613,0.963,1.327,1.885,2.03,2.795
				c2.023,2.614,3.807,4.934,3.073,7.762c-3.267-2.322-6.973-3.594-10.781-3.675l-0.045-2.18
				C60.698,18.01,60.992,16.72,61.277,15.472z M26.773,28.592c-0.271-1.78-0.151-3.57-0.024-5.466
				c0.007-0.105,0.014-0.212,0.021-0.319c1.266,1.4,2.884,2.652,4.648,3.564l1.393,0.719l0.065-1.565
				c0.068-1.637,0-3.28-0.065-4.871c-0.039-0.949-0.079-1.916-0.089-2.881c1.558,1.448,3.178,2.883,4.937,4.121l2.199,1.548
				l-0.653-2.608c-0.428-1.708-0.543-3.566-0.536-5.433c0.021,0.03,0.043,0.061,0.064,0.09c1.313,1.856,2.671,3.774,4.67,5.441
				l1.583,1.318l0.057-2.059c0.068-2.448,0.862-4.582,1.702-6.841c0.059-0.158,0.119-0.318,0.178-0.478
				c1.116,2.238,2.916,4.643,4.283,5.453l1.557,0.923l-0.048-1.809c-0.056-2.077,0.719-4.215,1.703-6.274
				c0.288,0.551,0.552,1.216,0.773,1.769c0.233,0.587,0.455,1.141,0.694,1.591c0.6,1.124,1.309,2.177,1.994,3.194
				c0.336,0.5,0.67,0.996,0.989,1.497l1.037,1.631c-0.502,0.014-1.006,0.039-1.511,0.094c-7.208,0.78-14.888,2.008-22.21,5.684
				c-2.592,1.303-4.616,3.572-6.177,6.195C28.004,32.17,27.173,31.218,26.773,28.592z M51.917,68.95
				c-11.193,0-19.855-5.17-23.169-13.828l-0.473-1.234l-1.059,0.79c-1.095,0.816-2.108,1.23-3.01,1.23
				c-2.148,0-3.432-2.489-3.432-4.896c0-1.131,0.288-2.141,0.812-2.846c0.922-1.242,2.563-1.449,4.698-0.629l1.22,0.469l0.079-0.772
				c0.235-0.243,0.274-0.536,0.279-0.66c0.003-0.078,0-0.321-0.145-0.565c0.848-6.733,4.082-14.945,9.363-17.599
				c7.038-3.532,14.506-4.723,21.528-5.482c5.546-0.605,11.015,1.661,15.185,6.265c2.059,2.273,5.143,6.692,5.398,7.246
				c-0.141-0.306-0.063-0.903,0.444-1.188l0.975,1.747l0.002-0.001c1.709-0.958,4.047-0.594,5.382,0.773
				c0.518,0.53,1.128,1.451,1.095,2.821c-0.039,1.567-1.021,3.027-2.503,3.719c-0.713,0.333-1.18,0.441-1.555,0.529
				c-1.535,0.358-1.708,0.995-2.073,3.15c-1.109,6.548-5.779,12.79-12.492,16.697C63.743,67.435,57.866,68.95,51.917,68.95z
				 M56.264,70.685c3.295-0.388,6.497-1.207,9.436-2.419c-0.455,0.755-1.661,2.06-4.834,3.94c-1.746,1.035-2.501,1.103-2.741,1.095
				l0-0.168L56.264,70.685z M58.267,75.295c0.931-0.028,2.11-0.473,3.618-1.367c2.604-1.544,4.337-2.951,5.268-4.259l0.207,0.373
				c-3.303,2.651-6.82,5.682-8.183,7.57c-2.25,3.116-3.25,5.689-3.577,6.654c-0.348-0.134-0.689-0.235-1.016-0.282L58.267,75.295z
				 M48.479,89.84c1.198-0.708,2.974,0.059,4.252,0.822l3.732,2.232l-2.383-3.639c-0.934-1.427-0.989-2.671-0.566-3.117
				c0.327-0.349,1.093-0.235,1.999,0.289c1.667,0.965,4.984,6.103,5.819,8.316l0.347-0.132c4.099,1.821,6.585,4.009,9.253,6.938
				c0.411,0.45,1.177,1.172,2.146,2.086c3.033,2.857,11.09,10.449,10.09,13.089c-0.238,0.627-1.308,1.002-3.015,1.057
				c-0.233,0.008-0.467,0.007-0.703-0.004c-0.007,0-0.014,0-0.021-0.001c-7.42-0.345-15.992-9.785-21.626-18.69l-0.546-0.863
				l-0.852,0.565c-0.342,0.227-0.687,0.434-1.032,0.623c-0.124,0.002-0.5,0.043-0.77,0.379c-2.226,1.036-4.381,1.267-5.805,0.529
				c-1.325-0.685-2.031-2.175-2.101-4.43C46.606,92.764,47.254,90.559,48.479,89.84z M70.512,116.314
				c-0.519-0.142-1.046-0.292-1.59-0.462c-11.828-3.694-12.604-12.585-12.61-14.686c0.113-0.062,0.227-0.112,0.34-0.178
				C59.029,104.629,64.28,111.962,70.512,116.314z M23.1,189.991l-13.468-7.772l-0.304-0.215L8.58,181.48
				c-4.755-3.329-7.522-7.595-6.301-9.71c0.167-0.288,0.73-0.453,1.545-0.453c2.579,0,7.556,1.63,13.654,4.471l0.829,0.387
				l16.833-29.026l10.385,3.992L23.1,189.991z M107.637,184.227l-13.426,7.003l-0.012-0.024l-0.846,0.348
				c-2.44,1.001-4.901,1.552-6.931,1.552c-2.16,0-3.658-0.593-4.22-1.67c-0.6-1.15,1.646-4.391,9.947-9.734l0.751-0.483
				l-14.968-30.252l10.023-4.478L107.637,184.227z M92.141,142.429l-20.44,9.131l-9.015-16.39l-10.342,16.449l-23.014-8.847
				l9.534-18.944l42.67,1.767L92.141,142.429z M82.101,123.616l-43.553-1.802l8.57-20.217c0.258,0.196,0.516,0.369,0.766,0.498
				c1.717,0.889,4.015,0.858,6.415-0.006c0.235,3.993,2.739,12.146,14.028,15.671c5.826,1.819,10.316,2.047,12.192,2.047
				c0.569,0,0.898-0.021,0.95-0.024l-0.008-0.114c1.277-0.179,2.24-0.573,2.873-1.184l1.449,5.025L82.101,123.616z M85.61,115.693
				l-0.514-1.783c-0.181-2.323-0.599-5.948-1.538-10.525l4.52,11.33L85.61,115.693z M109.891,110.017
				c0.989,2.48,0.954,5.199-0.101,7.653c-1.054,2.454-3.001,4.35-5.482,5.341c-1.275,0.509-2.612,0.748-3.971,0.711
				c-3.999-0.108-7.54-2.58-9.022-6.295L74.641,75.63c-0.989-2.48-0.954-5.198,0.101-7.652c1.055-2.454,3.001-4.351,5.482-5.34
				c1.276-0.509,2.611-0.748,3.972-0.712c0.191,0.006,0.375,0.042,0.563,0.058l13.716,34.078c0.987,2.449,3.329,4.079,5.97,4.15
				c0.5,0.014,0.996-0.034,1.48-0.134L109.891,110.017z"/>
		</g>
		<circle fill="#F5F5F5" cx="40.551" cy="136.348" r="3.097"/>
		<circle fill="#F5F5F5" cx="53.09" cy="130.155" r="3.097"/>
		<circle fill="#F5F5F5" cx="51.488" cy="142.676" r="3.097"/>
		<circle fill="#F5F5F5" cx="72.397" cy="130.155" r="3.097"/>
		<circle fill="#F5F5F5" cx="83.558" cy="137.723" r="3.097"/>
		<circle fill="#F5F5F5" cx="73.114" cy="142.726" r="3.097"/>
	</g>
	<g>
		<path fill="#ABC8E9" d="M17.219,178.521c-2.75-2-2.732-4.068-2.732-4.068l0,0c0,0-3.185-1.85-7.768-2.766
			c-3.054-0.61-4.235-0.975-4.784,0.917s2.367,5.834,6.09,8.475c3.723,2.641,15.075,8.912,15.075,8.912l3.504-6.071
			C26.604,183.92,19.969,180.521,17.219,178.521z"/>
		<path fill="#ABC8E9" d="M94.816,182.923c-3.177,1.213-4.331-0.125-4.331-0.125l-0.319,0.244c0,0-2.911,1.602-6.18,4.942
			c-2.178,2.226-2.387,3.002-1.102,4.495c1.285,1.492,5.655,1.085,9.899-0.594c4.244-1.679,14.853-7.631,14.853-7.631l-3.175-6.25
			C104.462,178.005,97.993,181.71,94.816,182.923z"/>
	</g>
</g>
<g>
	<g>
		<path fill="#8DC63F" d="M483.461,77.689c1.572-1.963,5.215-4.761,8.435-7.05l-0.752-1.056c-0.916,1.331-2.664,2.766-5.326,4.344
			c-1.506,0.895-2.688,1.339-3.617,1.367l-3.684,8.689c0.33,0.048,0.676,0.15,1.027,0.286
			C479.893,83.337,480.985,80.78,483.461,77.689z"/>
		<path fill="#FFFFFF" d="M465.955,59.107c-1.789,2.278-4.514,3.127-7.06,3.361c2.129,1.17,5.115,2.173,7.197,0.217
			c1.723-1.618,2.596-3.268,2.596-4.901c0-0.887-0.266-1.652-0.576-2.261C467.657,56.597,466.979,57.803,465.955,59.107z"/>
		<path fill="#8DC63F" d="M480.58,100.98c-0.795,0.441-1.674,0.824-2.592,1.124c1.303,3.144,4.779,9.784,8.711,10.833
			c1.955,0.521,3.551,0.847,4.797,1.052C486.58,109.675,482.569,104.028,480.58,100.98z"/>
		<path fill="#F5BA3D" d="M530.789,95.452c0.223,0,0.441-0.036,0.662-0.068L518.7,65.776c-1.186-2.75-3.504-4.771-6.273-5.612
			l14.117,32.504C527.28,94.359,528.946,95.452,530.789,95.452z"/>
		<path fill="#8DC63F" d="M485.022,78.939c-2.805,3.501-3.689,6.271-3.697,6.298l-0.221-0.068c1.92,1.596,4.34,5.382,5.504,7.697
			c2.365,1.069,4.242,2.283,5.912,3.651c-2.691-6.193-6.428-15.965-4.82-19.261c0.35-0.716,0.924-1.18,1.662-1.341
			c2.098-0.46,4.225-0.637,6.311,0.025l-2.615-3.671C489.944,74.481,486.457,77.148,485.022,78.939z"/>
		<path fill="#F5E0CD" d="M491.452,44.472l0.25-1.05l-0.564-1.062c1.215-0.646,2.023-2.076,2.221-3.924
			c0.137-1.278-0.045-2.594-0.467-3.713l-0.824,4.819l-0.988-5.754c-0.443-2.577-1.488-4.935-3.014-6.856l-1.805,0.679
			c-0.473-1.141-1.227-2.02-2.025-2.95c-0.113-0.131-0.227-0.263-0.34-0.396c-0.016,0.079-0.031,0.158-0.047,0.238
			c-0.064,0.327-0.135,0.673-0.188,1.067l-0.279,2.083l-1.439-1.53c-0.73-0.776-1.486-1.558-2.248-2.347
			c-1.875-1.94-3.805-3.937-5.543-6.036c-0.113,0.113-0.225,0.221-0.334,0.325c-0.299,0.286-0.58,0.557-0.74,0.8l-1.275,1.944
			l-0.533-2.264c-0.047-0.201-0.303-0.666-0.508-1.039c-0.162-0.296-0.334-0.605-0.488-0.925c-1.18,1.3-2.076,3.032-2.951,4.72
			c-0.371,0.715-0.734,1.419-1.113,2.077l-0.76,1.325l-0.91-1.228c-1.221-1.648-2.156-3.491-2.785-5.489
			c-5.127,1.947-12.44,7.495-13.147,12.566c-0.334,2.396,0.883,4.506,3.619,6.269l-0.578,0.896l0.02,1.528
			c-1.619,2.434-2.748,5.184-3.248,8.119l-0.197,1.165l-1.117-0.389c-0.44-0.152-0.899-0.23-1.367-0.23
			c-0.385,0.001-0.762,0.052-1.121,0.151c-1.273,0.352-2.131,1.257-2.129,2.251c0,1.301,1.49,2.399,3.252,2.399
			c0.367,0,0.74-0.053,1.104-0.153l1.301-0.409l0.154,1.188c0.125,0.966,0.312,1.904,0.557,2.789
			c3.088,11.188,15.15,17.653,26.887,14.413C487.446,67.311,494.475,55.631,491.452,44.472z M457.702,43.989
			c0.744-0.751,1.957-0.755,2.709-0.009c0.75,0.746,0.756,1.959,0.01,2.711c-0.746,0.751-1.959,0.755-2.711,0.008
			C456.957,45.953,456.953,44.74,457.702,43.989z M467.461,64.142c-1.297,1.219-2.77,1.669-4.236,1.669
			c-3.514,0-6.996-2.578-7.977-3.363c-1.637-0.159-2.807-0.452-2.939-0.487l0.504-1.936c0.08,0.021,8.248,2.076,11.57-2.153
			c3.109-3.96,2.57-6.646,2.545-6.758l1.947-0.464c0.018,0.072,0.217,0.956-0.023,2.397c0.641,0.746,1.822,2.429,1.836,4.704
			C470.7,59.971,469.614,62.121,467.461,64.142z"/>
		<path fill="#FFFFFF" d="M498.492,74.478c-0.727-1.69-1.039-3.485-0.959-5.272c-0.736,0.488-1.727,1.15-2.838,1.918l5.949,8.352
			L498.492,74.478z"/>
		<path fill="#F47D20" d="M530.789,97.452c-2.641,0-5.027-1.565-6.08-3.987l-14.635-33.693c-0.188-0.011-0.373-0.042-0.564-0.042
			c-1.361,0-2.689,0.275-3.951,0.819c-2.453,1.056-4.348,3.004-5.336,5.486c-0.986,2.481-0.949,5.199,0.107,7.652l17.801,41.33
			c1.582,3.674,5.189,6.048,9.189,6.048c1.359,0,2.689-0.275,3.951-0.818c2.453-1.058,4.348-3.006,5.336-5.487
			c0.986-2.481,0.949-5.2-0.107-7.653l-4.234-9.828C531.784,97.39,531.289,97.452,530.789,97.452z"/>
		<path fill="#F5E0CD" d="M501.866,150.966l14.967,30.252l-0.75,0.483c-8.301,5.344-10.547,8.584-9.947,9.734
			c0.562,1.077,2.061,1.67,4.221,1.67c2.029,0,4.49-0.551,6.93-1.552l0.846-0.348l0.014,0.024l13.426-7.003l-19.682-37.739
			L501.866,150.966z"/>
		<path fill="#FFFFFF" d="M509.36,113.331l0.254,1.052l5.031-2.333l0.412,0.889l-7.998-18.572
			C509.133,102.454,509.424,109.361,509.36,113.331z"/>
		<path fill="#8DC63F" d="M504.153,119.779c-0.115,0.004-0.232,0.006-0.348,0.006c-3.184,0-6.35-1.379-9.297-3.426
			c-0.881-0.032-3.623-0.236-8.324-1.49c-5.48-1.462-9.346-10.286-10.152-12.271c-1.812,0.328-3.666,0.289-5.285-0.281
			l-8.264,19.497l43.553,1.802l3.736-0.106l-1.279-5.272C507.703,119.19,506.258,119.713,504.153,119.779z"/>
		<path fill="#F5E0CD" d="M442.241,176.175l-0.828-0.387c-6.099-2.841-11.075-4.471-13.655-4.471c-0.814,0-1.378,0.165-1.544,0.453
			c-1.223,2.115,1.545,6.381,6.3,9.71l0.748,0.523l-0.018,0.03l13.79,7.957l22.426-38.851l-10.385-3.991L442.241,176.175z"/>
		<circle fill="#594A42" cx="459.061" cy="45.34" r="1.917"/>
		<path fill="#594A42" d="M468.875,50.65l-1.947,0.464c0.025,0.112,0.564,2.798-2.545,6.758c-3.322,4.229-11.49,2.175-11.57,2.153
			l-0.504,1.936c0.133,0.035,1.303,0.328,2.939,0.487c0.981,0.785,4.463,3.363,7.977,3.363c1.467,0,2.94-0.45,4.236-1.669
			c2.152-2.021,3.238-4.172,3.227-6.391c-0.014-2.275-1.195-3.958-1.836-4.704C469.092,51.606,468.893,50.722,468.875,50.65z
			 M466.092,62.685c-2.082,1.956-5.068,0.953-7.197-0.217c2.547-0.234,5.272-1.083,7.06-3.361c1.024-1.305,1.701-2.51,2.156-3.584
			c0.311,0.608,0.576,1.374,0.576,2.261C468.688,59.418,467.815,61.067,466.092,62.685z"/>
		<path fill="#F5E0CD" d="M482.059,73.302c0.236,0.009,0.994-0.06,2.74-1.095c4.238-2.513,4.967-3.996,5.084-4.518
			c0.051-0.226-0.004-0.312-0.006-0.315l-0.109-0.129l-1.52-2.215c-2.145,2.425-4.809,4.454-7.877,5.911l1.686,2.188L482.059,73.302
			z"/>
		<polygon fill="#00AF64" points="462.797,123.828 453.264,142.772 476.278,151.619 486.62,135.17 495.635,151.559 516.075,142.429 
			505.467,125.595 		"/>
		<path fill="#594A42" d="M538.678,96.57c-0.004,0-0.006,0-0.008,0c-2.609,0-7.58-6.584-8.23-8.709l-0.045,0.014l-9.859-22.89
			c-1.641-3.808-5.094-6.446-9.098-7.097c-0.631-0.102-1.273-0.159-1.928-0.159c-0.105,0-0.209,0.013-0.314,0.017
			c-1.523,0.039-3.014,0.355-4.428,0.965c-2.943,1.268-5.217,3.606-6.402,6.584c-0.197,0.498-0.348,1.005-0.479,1.517l-0.102-0.159
			c-0.18,0.115-1.967,1.263-4.252,2.84l-1.656-2.326c-0.08-0.562-0.34-0.935-0.508-1.12l-1.809-2.637
			c4.086-5.516,5.709-12.633,3.797-19.562c-0.051-0.179-0.109-0.352-0.166-0.525c1.178-1.087,1.947-2.72,2.154-4.673
			c0.324-3.032-0.711-6.042-2.635-7.668l-0.373-0.314c-0.992-2.89-2.705-5.417-4.973-7.29l-2.264-1.869l0.338,1.489
			c-0.654-0.771-1.258-1.535-1.67-2.477l-1.885,0.649c0.232,0.915,0.232,1.529,0.145,2.149c-0.297-0.31-0.598-0.62-0.898-0.932
			c-2.125-2.197-4.32-4.469-6.184-6.843l-0.904-1.153l-0.744,1.264c-0.172,0.293-0.467,0.585-0.785,0.892
			c0-0.001-0.002-0.001-0.002-0.001c-0.328-0.6-0.738-1.347-0.807-1.858l-0.226-1.7l-1.369,1.034
			c-2.088,1.581-3.348,4.012-4.564,6.362c-0.098,0.189-0.195,0.378-0.293,0.565c-0.824-1.379-1.447-2.885-1.859-4.496l-0.258-1.014
			l-1.002,0.305c-5.053,1.54-14.557,7.714-15.508,14.535c-0.285,2.051,0.15,4.959,3.584,7.569c-1.682,2.447-2.914,5.193-3.559,8.132
			c-0.301-0.044-0.607-0.066-0.916-0.066c-0.564,0-1.119,0.076-1.65,0.223c-2.154,0.594-3.599,2.273-3.597,4.18
			c0.002,2.428,2.357,4.398,5.251,4.398c0.248-0.002,0.494-0.016,0.74-0.047c0.121,0.684,0.271,1.352,0.447,1.994
			c3.381,12.249,16.547,19.341,29.348,15.81c0.752-0.207,1.482-0.449,2.197-0.719l1.641,2.13c0.049,0.192,0.139,0.395,0.268,0.584
			l-4.354,10.271c-0.01,0.01-0.021,0.016-0.029,0.025c-0.451,0.476-0.686,1.109-0.752,1.818l-0.496,1.169
			c-1.684-0.363-3.291-0.145-4.691,0.679c-2.363,1.389-3.711,4.252-3.607,7.661c0.086,2.786,1.281,4.377,2.52,5.293l-8.914,21.029
			l1.002,0.425l-10.572,21.01l6.699,2.575l-15.757,27.171c-3.851-1.753-10.026-4.275-13.669-4.275c-1.617,0-2.72,0.489-3.276,1.453
			c-1.744,3.02,0.774,7.801,6.146,11.813l17.139,10.14l23.584-40.856l5.746,2.209l9.408-14.965l8.266,15.024l5.267-2.354
			l14.213,28.725c-11.967,7.863-10.408,10.856-9.889,11.854c0.924,1.77,3.053,2.745,5.994,2.745c2.074,0,4.422-0.472,6.836-1.368
			l17.076-8.662l-20.551-39.403l5.279-2.358l-11.184-17.747l4.484-0.129l-2.201-9.073l5.365-2.488l0.832,1.933
			c1.898,4.408,6.227,7.257,11.027,7.257c1.635,0,3.229-0.331,4.742-0.982c6.076-2.617,8.891-9.69,6.273-15.768l-4.209-9.774
			l-0.227-0.525c1.568,1.476,3.262,2.555,4.771,2.555c0.004,0,0.01,0,0.016,0c1.102-0.006,2.57-0.548,3.324-3.102l-1.918-0.566
			C539.604,96.565,538.907,96.569,538.678,96.57z M518.7,65.776l12.752,29.607c-0.221,0.032-0.439,0.068-0.662,0.068
			c-1.844,0-3.51-1.093-4.246-2.784l-14.117-32.504C515.196,61.006,517.514,63.026,518.7,65.776z M497.534,69.206
			c-0.08,1.787,0.232,3.582,0.959,5.272l2.152,4.997l-5.949-8.352C495.807,70.356,496.797,69.694,497.534,69.206z M492.075,90.046
			c-1.98-5.28-3.379-10.27-2.576-11.912c0.1-0.207,0.199-0.244,0.291-0.265c4.238-0.928,8.685-0.901,12.77,9.086L492.075,90.046z
			 M503.276,88.829c0.215,0.596,0.43,1.212,0.643,1.868c2.777,8.586,3.381,16.353,3.428,21.117
			c-2.016-2.948-5.441-6.317-8.961-9.635c-0.873-0.823-1.562-1.474-1.945-1.879c-1.15-2.408-2.459-5.382-3.644-8.383L503.276,88.829
			z M495.672,75.941c-2.086-0.662-4.213-0.485-6.311-0.025c-0.738,0.161-1.312,0.625-1.662,1.341
			c-1.607,3.296,2.129,13.067,4.82,19.261c-1.67-1.368-3.547-2.582-5.912-3.651c-1.164-2.315-3.584-6.102-5.504-7.697l0.221,0.068
			c0.008-0.027,0.893-2.797,3.697-6.298c1.436-1.791,4.922-4.458,8.035-6.669L495.672,75.941z M475.741,70.542
			c-11.736,3.24-23.799-3.225-26.887-14.413c-0.244-0.885-0.432-1.823-0.557-2.789l-0.154-1.188l-1.301,0.409
			c-0.363,0.101-0.736,0.153-1.104,0.153c-1.762,0-3.252-1.099-3.252-2.399c-0.002-0.994,0.855-1.899,2.129-2.251
			c0.359-0.1,0.736-0.15,1.121-0.151c0.469,0,0.928,0.078,1.367,0.23l1.117,0.389l0.197-1.165c0.5-2.936,1.629-5.686,3.248-8.119
			l-0.02-1.528l0.578-0.896c-2.736-1.763-3.953-3.872-3.619-6.269c0.707-5.071,8.02-10.619,13.147-12.566
			c0.629,1.998,1.564,3.841,2.785,5.489l0.91,1.228l0.76-1.325c0.379-0.658,0.742-1.362,1.113-2.077
			c0.875-1.688,1.771-3.42,2.951-4.72c0.154,0.319,0.326,0.629,0.488,0.925c0.205,0.373,0.461,0.838,0.508,1.039l0.533,2.264
			l1.275-1.944c0.16-0.243,0.441-0.514,0.74-0.8c0.109-0.104,0.221-0.212,0.334-0.325c1.738,2.1,3.668,4.097,5.543,6.036
			c0.762,0.789,1.518,1.57,2.248,2.347l1.439,1.53l0.279-2.083c0.053-0.394,0.123-0.74,0.188-1.067
			c0.016-0.08,0.031-0.159,0.047-0.238c0.113,0.134,0.227,0.266,0.34,0.396c0.799,0.931,1.553,1.809,2.025,2.95l1.805-0.679
			c1.525,1.921,2.57,4.278,3.014,6.856l0.988,5.754l0.824-4.819c0.422,1.119,0.604,2.435,0.467,3.713
			c-0.197,1.848-1.006,3.278-2.221,3.924l0.564,1.062l-0.25,1.05C494.475,55.631,487.446,67.311,475.741,70.542z M480.371,70.941
			c3.068-1.457,5.732-3.486,7.877-5.911l1.52,2.215l0.109,0.129c0.002,0.004,0.057,0.089,0.006,0.315
			c-0.117,0.521-0.846,2.005-5.084,4.518c-1.746,1.035-2.504,1.104-2.74,1.095l-0.002-0.172L480.371,70.941z M482.202,75.295
			c0.93-0.028,2.111-0.473,3.617-1.367c2.662-1.578,4.41-3.013,5.326-4.344l0.752,1.056c-3.221,2.289-6.863,5.087-8.435,7.05
			c-2.477,3.091-3.568,5.648-3.916,6.581c-0.352-0.136-0.697-0.238-1.027-0.286L482.202,75.295z M468.45,96.028
			c-0.082-2.667,0.898-4.863,2.621-5.875c1.543-0.907,3.531-0.726,5.594,0.509l3.732,2.232l-2.383-3.639
			c-0.934-1.427-0.988-2.671-0.566-3.117c0.326-0.346,1.092-0.236,2,0.289c1.666,0.965,4.982,6.103,5.818,8.316l0.348-0.132
			c4.1,1.821,6.586,4.009,9.254,6.938c0.41,0.45,1.176,1.172,2.147,2.086c3.033,2.857,11.09,10.449,10.09,13.089
			c-0.238,0.627-1.309,1.002-3.014,1.057c-0.094,0.003-0.186,0.004-0.279,0.004c-7.543,0-16.324-9.615-22.07-18.699l-0.547-0.863
			l-0.852,0.565c-3.055,2.026-7.176,2.614-9.592,1.367C469.285,99.397,468.51,98.009,468.45,96.028z M491.496,113.989
			c-1.246-0.205-2.842-0.53-4.797-1.052c-3.932-1.049-7.408-7.689-8.711-10.833c0.918-0.3,1.797-0.683,2.592-1.124
			C482.569,104.028,486.58,109.675,491.496,113.989z M447.034,189.991l-13.79-7.957l0.018-0.03l-0.748-0.523
			c-4.755-3.329-7.522-7.595-6.3-9.71c0.166-0.288,0.73-0.453,1.544-0.453c2.58,0,7.557,1.63,13.655,4.471l0.828,0.387
			l16.834-29.025l10.385,3.991L447.034,189.991z M531.571,184.227l-13.426,7.003l-0.014-0.024l-0.846,0.348
			c-2.44,1.001-4.9,1.552-6.93,1.552c-2.16,0-3.658-0.593-4.221-1.67c-0.6-1.15,1.646-4.391,9.947-9.734l0.75-0.483l-14.967-30.252
			l10.023-4.478L531.571,184.227z M516.075,142.429l-20.439,9.131l-9.016-16.39l-10.342,16.449l-23.014-8.847l9.533-18.944
			l42.67,1.767L516.075,142.429z M506.035,123.616l-43.553-1.802l8.264-19.497c1.619,0.57,3.473,0.609,5.285,0.281
			c0.807,1.984,4.672,10.809,10.152,12.271c4.701,1.254,7.443,1.458,8.324,1.49c2.947,2.047,6.113,3.426,9.297,3.426
			c0.115,0,0.232-0.002,0.348-0.006c2.105-0.066,3.551-0.589,4.34-1.542l1.279,5.272L506.035,123.616z M514.645,112.05l-5.031,2.333
			l-0.254-1.052c0.064-3.97-0.227-10.877-2.301-18.965l7.998,18.572L514.645,112.05z M536.5,107.106
			c1.057,2.453,1.094,5.172,0.107,7.653c-0.988,2.481-2.883,4.43-5.336,5.487c-1.262,0.543-2.592,0.818-3.951,0.818
			c-4,0-7.607-2.374-9.189-6.048l-17.801-41.33c-1.057-2.453-1.094-5.171-0.107-7.652c0.988-2.482,2.883-4.431,5.336-5.486
			c1.262-0.544,2.59-0.819,3.951-0.819c0.191,0,0.377,0.031,0.564,0.042l14.635,33.693c1.053,2.422,3.44,3.987,6.08,3.987
			c0.5,0,0.994-0.062,1.477-0.174L536.5,107.106z"/>
		<path fill="#F5E0CD" d="M498.385,102.18c3.52,3.317,6.945,6.687,8.961,9.635c-0.047-4.765-0.65-12.531-3.428-21.117
			c-0.213-0.656-0.428-1.272-0.643-1.868l-10.48,3.089c1.185,3.001,2.494,5.975,3.644,8.383
			C496.823,100.706,497.512,101.356,498.385,102.18z"/>
		<path fill="#FFDD00" d="M489.789,77.869c-0.092,0.021-0.191,0.058-0.291,0.265c-0.803,1.643,0.596,6.632,2.576,11.912
			l10.484-3.091C498.475,76.968,494.028,76.941,489.789,77.869z"/>
		<path fill="#F5E0CD" d="M470.75,100.155c2.416,1.247,6.537,0.659,9.592-1.367l0.852-0.565l0.547,0.863
			c5.746,9.084,14.527,18.699,22.07,18.699c0.094,0,0.186-0.001,0.279-0.004c1.705-0.055,2.775-0.43,3.014-1.057
			c1-2.64-7.057-10.231-10.09-13.089c-0.971-0.914-1.736-1.636-2.147-2.086c-2.668-2.929-5.154-5.116-9.254-6.938l-0.348,0.132
			c-0.836-2.214-4.152-7.352-5.818-8.316c-0.908-0.525-1.674-0.635-2-0.289c-0.422,0.446-0.367,1.69,0.566,3.117l2.383,3.639
			l-3.732-2.232c-2.062-1.234-4.051-1.416-5.594-0.509c-1.723,1.012-2.703,3.208-2.621,5.875
			C468.51,98.009,469.285,99.397,470.75,100.155z"/>
		<path fill="#F47D20" d="M490.592,44.233c-0.539-1.444,2.574-3.991,2.766-5.796c0.137-1.278-0.045-2.594-0.467-3.713l-0.824,4.819
			l-0.988-5.754c-0.443-2.577-1.488-4.935-3.014-6.856l-1.805,0.679c-0.473-1.141-1.227-2.02-2.025-2.95
			c-0.113-0.131-0.227-0.263-0.34-0.396c-0.016,0.079-0.031,0.158-0.047,0.238c-0.064,0.327-0.135,0.673-0.188,1.067l-0.279,2.083
			l-1.439-1.53c-0.73-0.776-1.486-1.558-2.248-2.347c-1.875-1.94-3.805-3.937-5.543-6.036c-0.113,0.113-0.225,0.221-0.334,0.325
			c-0.299,0.286-0.58,0.557-0.74,0.8l-1.275,1.944l-0.533-2.264c-0.047-0.201-0.303-0.666-0.508-1.039
			c-0.162-0.296-0.334-0.605-0.488-0.925c-1.18,1.3-2.076,3.032-2.951,4.72c-0.371,0.715-0.734,1.419-1.113,2.077l-0.76,1.325
			l-0.91-1.228c-1.221-1.648-2.156-3.491-2.785-5.489c-5.127,1.947-12.44,7.494-13.147,12.566c-0.438,3.139,2.049,4.421,3.336,6.841
			c0.934-0.705,1.725-1.618,2.684-2.273c0.154,0.634,0.562,1.273,1.084,1.648c0.135-0.386,0.453-0.562,0.568-0.97
			c0.781,0.369,1.385,1.275,2.279,1.627c-0.02-0.3,0.08-0.66,0.049-0.956c0.174-0.068,0.531,0.121,0.611,0.075
			c0.139-0.059-0.057-0.239,0.184-0.292c0.605,0.475,1.387,0.835,2.154,0.837c0.078-0.068,0.014-0.358,0.049-0.455
			c0.978,0.085,1.09-0.881,1.623-0.886c1.652-0.016,5.035,2.112,6.539,2.978c0.176-0.636,0.648-1.231,1.314-1.446
			c0.672,1.238,1.223,1.985,2.486,2.666c-0.047-0.986,0.424-1.971,1.355-2.359c0.258,0.412,0.895,0.718,1.146,1.164
			c0.914-0.989,1.885-1.989,2.627-3.109c1.027,0.897,1.953,2.584,2.57,3.761c1.506-1.92,2.578,0.182,3.346,1.531
			c2.076-2.309,2.83,0.749,3.811,2.298c0.066-0.111,0.049-0.301,0.146-0.45c0.473,0.424,0.893,0.941,1.014,1.616
			c0.004-0.559,0.236-0.752,0.33-1.232C490.09,43.549,490.452,43.855,490.592,44.233z"/>
		<polygon fill="#ABD15B" points="474.137,145.486 472.041,144.299 469.875,145.351 470.358,142.992 468.688,141.257 
			471.08,140.986 472.213,138.861 473.211,141.054 475.582,141.475 473.805,143.1 		"/>
		<polygon fill="#ABD15B" points="467.932,134.348 465.836,133.161 463.67,134.214 464.153,131.854 462.483,130.119 
			464.875,129.848 466.008,127.723 467.006,129.916 469.377,130.337 467.6,131.963 		"/>
		<polygon fill="#ABD15B" points="480.52,133.098 478.424,131.911 476.258,132.964 476.741,130.604 475.071,128.869 
			477.463,128.598 478.596,126.473 479.594,128.666 481.965,129.087 480.188,130.713 		"/>
		<polygon fill="#ABD15B" points="497.916,134.348 495.821,133.161 493.655,134.214 494.137,131.854 492.465,130.119 
			494.86,129.848 495.992,127.723 496.989,129.916 499.362,130.337 497.584,131.963 		"/>
		<polygon fill="#ABD15B" points="499.674,147.661 497.578,146.473 495.412,147.526 495.895,145.167 494.223,143.432 
			496.617,143.161 497.75,141.036 498.746,143.228 501.12,143.649 499.342,145.275 		"/>
		<polygon fill="#ABD15B" points="509.35,142.174 507.254,140.986 505.088,142.039 505.571,139.68 503.899,137.944 506.293,137.674 
			507.426,135.549 508.422,137.741 510.795,138.162 509.018,139.788 		"/>
	</g>
	<g>
		<path fill="#8DC63F" d="M441.152,178.551c-2.75-2-2.732-4.068-2.732-4.068l0,0c0,0-3.185-1.85-7.768-2.766
			c-3.054-0.61-4.302-1.129-4.851,0.763c-0.549,1.892,2.434,5.988,6.157,8.629c3.723,2.641,15.075,8.912,15.075,8.912l3.504-6.071
			C450.537,183.949,443.902,180.551,441.152,178.551z"/>
		<path fill="#8DC63F" d="M518.75,182.952c-3.178,1.213-4.284-0.186-4.284-0.186s-3.276,1.907-6.546,5.248
			c-2.178,2.226-2.387,3.002-1.102,4.495c1.285,1.492,5.655,1.085,9.899-0.594c4.244-1.679,14.853-7.631,14.853-7.631l-3.176-6.25
			C528.395,178.034,521.926,181.739,518.75,182.952z"/>
	</g>
</g>
<g>
	<g>
		<g>
			<path fill="#C94827" d="M300.301,22.347c-3.298-2.5-8.189-3.12-14.536-1.844c-2.365,0.475-6.073,3.688-7.822,7.714
				c-0.635,1.46-1.183,3.427-0.748,5.325c2.41-3.071,7.003-4.769,10.211-5.954c6.745-2.491,11.514-0.146,14.364,1.258
				c0.666,0.327,1.507,0.743,2.024,0.874c0.068-0.321,0.176-0.632,0.317-0.934C303.993,27.852,303.375,24.677,300.301,22.347z"/>
			<path fill="#FFEC5F" d="M345.065,23.297c0.173,0.056,0.346,0.11,0.517,0.168c0.319,0.061,0.653,0.061,0.986-0.023
				c1.251-0.312,2.016-1.583,1.705-2.834c-0.26-1.045-1.192-1.775-2.267-1.775c-0.19,0-0.38,0.023-0.566,0.07
				c-0.607,0.15-1.119,0.528-1.44,1.063c-0.322,0.535-0.417,1.164-0.266,1.771C343.912,22.451,344.426,23.01,345.065,23.297z"/>
			<path fill="#FFEC5F" d="M308.589,32.881c1.252-0.31,2.018-1.582,1.706-2.834c-0.26-1.045-1.192-1.775-2.267-1.775
				c-0.189,0-0.381,0.024-0.567,0.07c-0.607,0.15-1.117,0.528-1.44,1.063c-0.322,0.535-0.417,1.163-0.266,1.77
				C306.061,32.405,307.344,33.196,308.589,32.881z"/>
			<path fill="#FFFFFF" d="M353.825,75.687c-1.056-2.452-1.251-5.124-0.604-7.67c-0.829,0.616-1.787,1.338-2.805,2.118l3.543,5.861
				L353.825,75.687z"/>
			<path fill="#FFDD00" d="M340.806,78.439c-3.15,3.785-4.143,6.778-4.152,6.809l-0.201-0.064c1.918,1.604,4.327,5.375,5.487,7.683
				c2.365,1.069,4.242,2.283,5.912,3.65c-2.69-6.192-6.427-15.964-4.819-19.26c0.35-0.716,0.924-1.18,1.662-1.341
				c2.213-0.485,4.459-0.655,6.653,0.143l-0.831-1.902l-1.345-2.221c-0.048,0.08-0.088,0.158-0.145,0.239
				c-0.79,1.116-2.226,1.945-4.262,2.492C343.095,76.088,341.649,77.425,340.806,78.439z"/>
			<path fill="#FFDD00" d="M339.268,77.16c0.46-0.553,1.078-1.188,1.797-1.87c-0.027,0.002-0.052,0.007-0.079,0.009
				c-1.454,0.128-2.487,0.199-3.229,0.199c-0.121,0-0.226-0.005-0.332-0.009l-3.846,8.477c0.413,0.03,0.849,0.132,1.3,0.307
				C335.251,83.305,336.464,80.529,339.268,77.16z"/>
			<path fill="#C94827" d="M349.415,18.512c0.605-0.066,1.975-1.491,3.085-2.65c2.384-2.487,5.648-5.894,10.119-6.977
				c3.735-0.905,8.537-1.159,11.979,0.442c-0.312-1.227-1.035-2.378-2.161-3.439c-3.014-2.839-8.036-4.204-10.962-3.829
				c-5.934,0.749-10.006,3.001-12.105,6.694c-1.965,3.458-1.608,7.184-1.069,8.751C348.727,17.77,349.103,18.11,349.415,18.512z"/>
			<path fill="#FFDD00" d="M335.912,100.98c-0.418,0.233-0.86,0.446-1.318,0.643c0.62,2.423,2.909,9.679,8.474,11.579
				c1.84,0.628,3.307,1.079,4.484,1.409C342.306,110.233,337.997,104.177,335.912,100.98z"/>
			<path fill="#F5BA3D" d="M386.122,96.661c0.223,0,0.441-0.036,0.66-0.068l-2.307-5.356c-0.267-0.476-0.469-0.906-0.575-1.253
				l0.031-0.01l-9.901-22.988c-1.184-2.75-3.502-4.771-6.271-5.612l14.117,32.504C382.61,95.568,384.276,96.661,386.122,96.661z"/>
			<path fill="#FFDD00" d="M364.542,116.474c0.931-0.221,2.204-0.502,3.936-0.859l-1.502-3.785l-2.58-5.906
				C364.895,111.318,364.653,115.194,364.542,116.474z"/>
			<path fill="#F47D20" d="M386.122,98.661c-2.643,0-5.027-1.565-6.08-3.987L365.407,60.98c-0.19-0.011-0.373-0.042-0.565-0.042
				c-1.361,0-2.689,0.275-3.951,0.819c-2.453,1.056-4.348,3.004-5.336,5.486c-0.988,2.481-0.949,5.199,0.107,7.652l17.801,41.33
				c1.582,3.674,5.189,6.048,9.189,6.048c1.359,0,2.689-0.275,3.949-0.818c2.455-1.058,4.35-3.006,5.336-5.487
				c0.988-2.481,0.949-5.2-0.107-7.653l-4.232-9.828C387.116,98.599,386.622,98.661,386.122,98.661z"/>
			<path fill="#FFFFFF" d="M370.818,115.142l-4.78-11.1l4.432,11.169C370.581,115.189,370.704,115.166,370.818,115.142z"/>
			<path fill="#FFDD00" d="M362.976,118.961l-0.004-0.008c-0.834,0.497-1.991,0.779-3.488,0.826
				c-0.115,0.004-0.231,0.006-0.347,0.006c-2.561,0-5.108-0.894-7.542-2.307c-0.841-0.034-3.246-0.359-9.175-2.384
				c-6.422-2.192-8.979-9.908-9.725-12.801c-2.475,0.692-5.166,0.757-7.314-0.263l-15.805,34.83h7.882h20.033h8.314H365.8h11.106
				l-7.679-19.354C366.153,118.14,363.424,118.756,362.976,118.961z"/>
			<path fill="#CEA28B" d="M338.69,71.105c-0.36,0.09-0.723,0.157-1.084,0.235l0.192,2.153c0.516-0.006,1.426-0.048,3.013-0.188
				c1.204-0.105,2.189-0.267,3.006-0.458c1.08-0.912,2.233-1.844,3.372-2.741l-1.756-1.221l0.21-0.302
				C343.475,69.638,341.15,70.494,338.69,71.105z"/>
			<path fill="#CEA28B" d="M349.171,138.861l23.024,42.337l-0.781,0.503c-8.301,5.344-10.547,8.583-9.947,9.734
				c0.562,1.077,2.061,1.67,4.221,1.67c2.029,0,4.491-0.551,6.931-1.552l0.846-0.348l0.013,0.024l13.446-7.014l-22.367-45.355
				H349.171z"/>
			<path fill="#CEA28B" d="M360.104,42.776l-0.1-0.902l1.083-0.214c2.138-0.532,3.496-2.667,2.979-4.746
				c-0.427-1.715-2.016-2.912-3.865-2.912c-0.347,0-0.695,0.043-1.037,0.128c-0.296,0.073-0.595,0.192-0.938,0.37l-0.792,0.412
				l-0.499-0.739c-2.727-4.038-6.896-7.062-11.872-8.775c-0.249-0.056-0.488-0.132-0.721-0.229
				c-2.836-0.891-5.912-1.373-9.128-1.373c-0.295,0-0.591,0.02-0.887,0.027c1.344,0.593,2.882,1.356,4.614,2.236
				c1.608,0.816,3.609,1.834,4.098,1.892c0.002-0.004-0.188-0.02-0.408,0.115l1.045,1.705c-0.191,0.117-0.395,0.179-0.646,0.179
				c-0.804,0-2.092-0.633-4.995-2.108c-1.98-1.006-5.013-2.549-6.825-3.085c1.017,0.771,1.95,1.743,2.67,2.671
				c0.682,0.879,2.839,3.909,1.967,5.978l-1.844-0.777c0.202-0.478-0.193-2.027-1.704-3.975c-1.558-2.01-3.525-3.41-4.687-3.372
				c0.044,1.431,0.505,2.963,0.995,4.57c0.666,2.183,1.355,4.44,0.988,6.647l-1.973-0.328c0.29-1.743-0.302-3.683-0.929-5.735
				c-0.465-1.524-0.94-3.087-1.062-4.646c-0.931,0.972-1.816,2.982-2.199,5.184c-0.406,2.335-0.034,3.632,0.295,3.901l-1.264,1.549
				c-1.589-1.296-1.229-4.482-1.001-5.793c0.259-1.486,0.753-3.059,1.444-4.376c-1.342,1.107-3.575,4.275-4.986,6.28
				c-2.384,3.386-3.097,4.345-3.994,4.345c-0.027,0-0.056-0.001-0.084-0.003l0.127-1.996c-0.263-0.015-0.415,0.088-0.417,0.09
				c0.405-0.28,1.696-2.113,2.733-3.587c0.797-1.132,1.53-2.157,2.22-3.079c-8.161,4.755-13.443,12.682-13.34,21.013l0.014,1.093
				l-1.09-0.083c-0.473-0.032-0.944-0.009-1.365,0.095c-2.185,0.543-3.542,2.677-3.025,4.756c0.426,1.715,2.015,2.913,3.864,2.913
				c0.347,0,0.695-0.043,1.036-0.128c0.414-0.103,0.822-0.284,1.248-0.555l0.925-0.588l0.501,0.975
				c3.922,7.627,12.695,12.365,22.896,12.365c2.675,0,5.379-0.335,8.036-0.996C351.974,65.743,361.388,54.398,360.104,42.776z
				 M343.854,35.876c1.229-0.305,2.474,0.444,2.778,1.673c0.306,1.229-0.443,2.473-1.672,2.777c-1.23,0.306-2.473-0.442-2.778-1.672
				C341.877,37.426,342.626,36.181,343.854,35.876z M316.271,46.43c-0.306-1.23,0.444-2.473,1.675-2.778
				c1.228-0.306,2.473,0.441,2.778,1.672c0.306,1.229-0.444,2.473-1.673,2.778C317.822,48.408,316.577,47.66,316.271,46.43z
				 M328.264,58.646c-6.811,0-8.25-2.857-8.43-3.294l1.85-0.762c0.007,0.012,2.227,4.122,16.001,0.691
				c8.748-2.177,10.494-7.45,10.565-7.674l1.914,0.58c-0.08,0.267-2.073,6.565-11.996,9.035
				C334.004,58.26,330.77,58.646,328.264,58.646z"/>
			<path fill="#CEA28B" d="M297.584,176.179l-0.839-0.391c-6.099-2.841-11.075-4.471-13.655-4.471c-0.815,0-1.378,0.165-1.544,0.453
				c-1.223,2.115,1.544,6.381,6.299,9.71l0.742,0.52l-0.017,0.03l13.818,7.976l31.522-51.145h-15.283L297.584,176.179z"/>
			<circle fill="#594A42" cx="344.408" cy="38.101" r="2.293"/>
			<circle fill="#594A42" cx="318.498" cy="45.877" r="2.294"/>
			<path fill="#594A42" d="M350.164,48.188l-1.914-0.58c-0.07,0.224-1.816,5.497-10.565,7.674
				c-13.774,3.431-15.994-0.68-16.001-0.691l-1.85,0.762c0.18,0.436,1.618,3.294,8.43,3.294c2.506,0,5.739-0.387,9.903-1.423
				C348.091,54.754,350.084,48.455,350.164,48.188z"/>
			<path fill="#594A42" d="M393.909,97.016c-0.003,0-0.007,0-0.01,0c-2.372,0-6.191-4.2-7.599-6.601l-10.433-24.222
				c-1.641-3.808-5.094-6.446-9.098-7.097c-0.631-0.102-1.275-0.159-1.928-0.159c-0.105,0-0.209,0.013-0.314,0.017
				c-1.525,0.039-3.014,0.355-4.428,0.965c-2.201,0.948-4.027,2.495-5.305,4.46c-0.433,0.312-2.699,1.945-5.422,4.03l-0.844-1.396
				c8.844-5.405,14.283-14.36,13.64-23.6c2.869-1.05,4.567-4.047,3.839-6.982c-0.649-2.608-3.037-4.43-5.807-4.43
				c-0.51,0-1.021,0.062-1.521,0.187c-0.189,0.048-0.379,0.106-0.571,0.178c-2.396-3.275-5.681-5.89-9.54-7.701
				c1.316-0.97,2.004-2.641,1.676-4.323c1.122-0.422,2.253-1.589,3.698-3.097c2.336-2.438,5.243-5.472,9.145-6.418
				c3.797-0.919,9.224-1.166,12.032,1.164l1.508,1.251l0.129-1.955c0.165-2.511-0.855-4.882-2.951-6.856
				c-3.485-3.282-9.139-4.792-12.583-4.357c-8.212,1.036-11.925,4.754-13.594,7.691c-1.834,3.227-1.974,6.733-1.551,9.073
				c-0.024,0-0.048-0.006-0.073-0.006c-0.352,0-0.705,0.044-1.049,0.129c-1.125,0.28-2.074,0.98-2.672,1.974
				c-0.598,0.993-0.773,2.159-0.493,3.284c0.022,0.086,0.058,0.163,0.084,0.247c-2.137-0.438-4.367-0.67-6.662-0.67
				c-2.837,0-5.703,0.355-8.519,1.055c-1.348,0.335-2.646,0.762-3.913,1.238l-0.023-0.063c-0.147,0.056-0.302,0.148-0.455,0.238
				c-3.768,1.478-7.134,3.553-9.961,6.05c-0.017-0.249-0.045-0.499-0.107-0.749c-0.482-1.939-2.213-3.293-4.208-3.293
				c-0.353,0-0.706,0.044-1.05,0.129c-0.44,0.109-0.843,0.301-1.219,0.532c-0.597-2.033-1.918-4.411-4.251-6.179
				c-3.773-2.86-9.204-3.605-16.139-2.211c-3.32,0.667-7.389,4.566-9.262,8.878c-1.438,3.308-1.41,6.455,0.076,8.864l1.028,1.667
				l0.747-1.811c1.426-3.457,6.669-5.395,10.188-6.694c5.894-2.18,9.848-0.229,12.738,1.193c1.119,0.551,2.084,1.019,2.956,1.099
				c0.511,1.894,2.214,3.212,4.181,3.212c0.021,0,0.041-0.004,0.061-0.004c-2.955,4.006-4.736,8.611-4.903,13.384
				c-0.322,0.025-0.635,0.075-0.935,0.149c-3.255,0.81-5.268,4.03-4.485,7.18c0.648,2.608,3.035,4.431,5.806,4.431
				c0.509,0,1.02-0.062,1.52-0.186c0.303-0.076,0.601-0.177,0.896-0.305c4.47,7.773,13.635,12.561,24.191,12.561
				c1.816,0,3.642-0.161,5.459-0.449l0.183,2.031l-0.191,0.105l0.135,0.482L329.7,87.679c-1.543-0.255-3.017-0.011-4.311,0.75
				c-2.363,1.389-3.712,4.252-3.607,7.661c0.072,2.335,0.925,3.825,1.927,4.79l-17.235,37.981h9.857l-19.583,34.727
				c-3.851-1.752-10.02-4.271-13.658-4.271c-1.617,0-2.72,0.489-3.276,1.453c-1.746,3.02,0.774,7.804,6.149,11.817l17.109,10.121
				l33.188-53.848h10.634l22.659,41.665c-11.935,7.848-10.379,10.837-9.859,11.834c0.924,1.77,3.053,2.745,5.994,2.745
				c2.074,0,4.422-0.472,6.837-1.368l17.057-8.651l-22.795-46.225H377.7l0.062,0.156l0.393-0.156h0.224v-0.089l1.242-0.493
				l-8.401-21.176c0.136-0.027,0.272-0.055,0.408-0.082c1.899,4.406,6.227,7.253,11.025,7.253c1.633,0,3.229-0.331,4.74-0.982
				c6.078-2.617,8.893-9.69,6.275-15.768l-4.211-9.774l-0.491-1.144c1.614,1.386,3.377,2.41,4.935,2.41c0.006,0,0.013,0,0.019,0
				c1.207-0.007,2.812-0.583,3.612-3.293l-1.918-0.566C395.067,97.011,394.226,97.014,393.909,97.016z M303.794,29.721
				c-0.518-0.131-1.358-0.547-2.024-0.874c-2.851-1.403-7.619-3.749-14.364-1.258c-3.208,1.186-7.801,2.883-10.211,5.954
				c-0.435-1.898,0.113-3.865,0.748-5.325c1.749-4.025,5.457-7.239,7.822-7.714c6.347-1.276,11.238-0.656,14.536,1.844
				c3.074,2.329,3.692,5.505,3.811,6.44C303.97,29.089,303.862,29.399,303.794,29.721z M374.03,66.985l9.901,22.988l-0.031,0.01
				c0.107,0.347,0.309,0.777,0.575,1.253l2.307,5.356c-0.219,0.032-0.438,0.068-0.66,0.068c-1.846,0-3.512-1.093-4.246-2.784
				l-14.117-32.504C370.528,62.215,372.846,64.235,374.03,66.985z M353.221,68.017c-0.647,2.546-0.451,5.218,0.604,7.67l0.134,0.31
				l-3.543-5.861C351.433,69.355,352.392,68.634,353.221,68.017z M359.25,90.697c2.778,8.586,3.382,16.354,3.429,21.117
				c-2.016-2.948-5.442-6.318-8.964-9.637c-0.873-0.822-1.561-1.472-1.943-1.877c-3.428-7.169-8.29-19.401-6.941-22.167
				c0.101-0.207,0.199-0.244,0.292-0.265C349.835,76.836,354.808,76.977,359.25,90.697z M349.026,72.175
				c0.058-0.081,0.098-0.159,0.145-0.239l1.345,2.221l1.25,2.064c-0.14-0.06-0.279-0.111-0.419-0.162
				c-2.194-0.798-4.44-0.628-6.653-0.143c-0.738,0.161-1.312,0.625-1.662,1.341c-1.607,3.296,2.129,13.067,4.819,19.26
				c-1.67-1.367-3.547-2.581-5.912-3.65c-1.16-2.308-3.569-6.078-5.487-7.683l0.201,0.064c0.01-0.03,1.002-3.023,4.152-6.809
				c0.844-1.015,2.289-2.351,3.959-3.772C346.801,74.12,348.236,73.291,349.026,72.175z M347.189,70.107
				c-1.14,0.897-2.292,1.829-3.372,2.741c-0.816,0.191-1.802,0.353-3.006,0.458c-1.587,0.14-2.497,0.182-3.013,0.188l-0.192-2.153
				c0.361-0.078,0.724-0.146,1.084-0.235c2.46-0.611,4.785-1.468,6.953-2.521l-0.21,0.302L347.189,70.107z M349.369,8.752
				c2.1-3.693,6.172-5.945,12.105-6.694c2.926-0.375,7.948,0.99,10.962,3.829c1.126,1.062,1.849,2.213,2.161,3.439
				c-3.441-1.602-8.243-1.348-11.979-0.442c-4.471,1.084-7.735,4.49-10.119,6.977c-1.11,1.159-2.48,2.584-3.085,2.65
				c-0.311-0.401-0.688-0.741-1.115-1.009C347.761,15.935,347.404,12.21,349.369,8.752z M344,19.966
				c0.321-0.535,0.833-0.913,1.44-1.063c0.186-0.047,0.377-0.07,0.566-0.07c1.074,0,2.007,0.731,2.267,1.775
				c0.31,1.251-0.454,2.522-1.705,2.834c-0.333,0.085-0.667,0.085-0.986,0.023c-0.171-0.058-0.344-0.112-0.517-0.168
				c-0.64-0.287-1.153-0.846-1.331-1.56C343.583,21.13,343.678,20.501,344,19.966z M305.756,31.175
				c-0.151-0.607-0.057-1.234,0.266-1.77c0.322-0.535,0.833-0.913,1.44-1.063c0.186-0.047,0.378-0.07,0.567-0.07
				c1.074,0,2.007,0.731,2.267,1.775c0.311,1.252-0.454,2.524-1.706,2.834C307.344,33.196,306.061,32.405,305.756,31.175z
				 M330.172,70.16c-10.201,0-18.975-4.738-22.896-12.365l-0.501-0.975l-0.925,0.588c-0.426,0.271-0.834,0.452-1.248,0.555
				c-0.341,0.085-0.689,0.128-1.036,0.128c-1.85,0-3.439-1.198-3.864-2.913c-0.517-2.079,0.841-4.213,3.025-4.756
				c0.421-0.104,0.893-0.127,1.365-0.095l1.09,0.083l-0.014-1.093c-0.104-8.331,5.179-16.258,13.34-21.013
				c-0.689,0.922-1.423,1.947-2.22,3.079c-1.037,1.474-2.328,3.307-2.733,3.587c0.002-0.002,0.154-0.104,0.417-0.09l-0.127,1.996
				c0.028,0.002,0.057,0.003,0.084,0.003c0.897,0,1.61-0.959,3.994-4.345c1.411-2.005,3.645-5.174,4.986-6.28
				c-0.691,1.316-1.185,2.89-1.444,4.376c-0.228,1.311-0.588,4.497,1.001,5.793l1.264-1.549c-0.329-0.27-0.701-1.566-0.295-3.901
				c0.383-2.201,1.269-4.212,2.199-5.184c0.121,1.559,0.597,3.121,1.062,4.646c0.627,2.053,1.219,3.992,0.929,5.735l1.973,0.328
				c0.367-2.206-0.322-4.464-0.988-6.647c-0.49-1.607-0.951-3.14-0.995-4.57c1.161-0.038,3.129,1.362,4.687,3.372
				c1.511,1.947,1.906,3.497,1.704,3.975l1.844,0.777c0.872-2.068-1.285-5.099-1.967-5.978c-0.72-0.928-1.653-1.899-2.67-2.671
				c1.812,0.536,4.846,2.079,6.825,3.085c2.903,1.475,4.191,2.108,4.995,2.108c0.251,0,0.454-0.062,0.646-0.179l-1.045-1.705
				c0.221-0.135,0.41-0.119,0.408-0.115c-0.488-0.058-2.489-1.075-4.098-1.892c-1.732-0.881-3.271-1.644-4.614-2.236
				c0.296-0.008,0.592-0.027,0.887-0.027c3.216,0,6.292,0.482,9.128,1.373c0.232,0.097,0.472,0.173,0.721,0.229
				c4.977,1.713,9.146,4.737,11.872,8.775l0.499,0.739l0.792-0.412c0.344-0.179,0.643-0.297,0.938-0.37
				c0.342-0.085,0.69-0.128,1.037-0.128c1.85,0,3.439,1.197,3.865,2.912c0.517,2.079-0.842,4.214-2.979,4.746l-1.083,0.214
				l0.1,0.902c1.283,11.622-8.13,22.967-21.896,26.388C335.551,69.825,332.846,70.16,330.172,70.16z M337.426,75.489
				c0.107,0.004,0.211,0.009,0.332,0.009c0.741,0,1.774-0.071,3.229-0.199c0.027-0.002,0.052-0.007,0.079-0.009
				c-0.719,0.683-1.337,1.317-1.797,1.87c-2.805,3.369-4.018,6.145-4.389,7.112c-0.451-0.175-0.887-0.276-1.3-0.307L337.426,75.489z
				 M326.402,90.153c1.544-0.907,3.532-0.726,5.594,0.509l3.732,2.232l-2.382-3.639c-0.935-1.427-0.989-2.672-0.566-3.118
				c0.326-0.345,1.092-0.234,1.998,0.29c1.669,0.966,4.984,6.103,5.819,8.315l0.348-0.131c4.101,1.822,6.586,4.01,9.253,6.938
				c0.41,0.45,1.176,1.171,2.145,2.084c3.034,2.858,11.093,10.451,10.093,13.091c-0.237,0.627-1.308,1.002-3.014,1.057
				c-0.094,0.003-0.185,0.004-0.278,0.004c-7.544,0-16.325-9.615-22.072-18.699l-0.546-0.863l-0.852,0.565
				c-3.057,2.026-7.181,2.614-9.591,1.367c-1.466-0.758-2.24-2.146-2.301-4.127C323.7,93.361,324.68,91.165,326.402,90.153z
				 M347.552,114.611c-1.178-0.33-2.645-0.781-4.484-1.409c-5.564-1.9-7.853-9.156-8.474-11.579c0.458-0.196,0.9-0.41,1.318-0.643
				C337.997,104.177,342.306,110.233,347.552,114.611z M302.388,190.006l-14.544-8.525c-4.755-3.329-7.522-7.595-6.299-9.71
				c0.166-0.288,0.729-0.453,1.544-0.453c2.58,0,7.557,1.63,13.655,4.471l0.839,0.391l21.043-37.317h15.283L302.388,190.006z
				 M386.923,184.217l-13.446,7.014l-0.013-0.024l-0.846,0.348c-2.439,1.001-4.901,1.552-6.931,1.552
				c-2.16,0-3.659-0.593-4.221-1.67c-0.6-1.151,1.646-4.391,9.947-9.734l0.781-0.503l-23.024-42.337h15.385L386.923,184.217z
				 M376.906,136.861H365.8h-19.994h-8.314h-20.033h-7.882l15.805-34.83c2.148,1.02,4.84,0.955,7.314,0.263
				c0.746,2.893,3.303,10.608,9.725,12.801c5.929,2.024,8.334,2.35,9.175,2.384c2.434,1.413,4.981,2.307,7.542,2.307
				c0.115,0,0.231-0.002,0.347-0.006c1.497-0.047,2.654-0.329,3.488-0.826l0.004,0.008c0.447-0.205,3.177-0.82,6.251-1.454
				L376.906,136.861z M366.975,111.83l1.502,3.785c-1.731,0.357-3.005,0.639-3.936,0.859c0.111-1.28,0.354-5.156-0.146-10.551
				c-0.024-0.262-0.052-0.529-0.08-0.797L366.975,111.83z M366.038,104.043l4.78,11.1c-0.114,0.023-0.237,0.047-0.349,0.069
				L366.038,104.043z M391.831,108.315c1.057,2.453,1.096,5.172,0.107,7.653c-0.986,2.481-2.881,4.43-5.336,5.487
				c-1.26,0.543-2.59,0.818-3.949,0.818c-4,0-7.608-2.374-9.189-6.048l-17.801-41.33c-1.057-2.453-1.096-5.171-0.107-7.652
				c0.988-2.482,2.883-4.431,5.336-5.486c1.262-0.544,2.59-0.819,3.951-0.819c0.191,0,0.375,0.031,0.565,0.042l14.635,33.693
				c1.053,2.422,3.438,3.987,6.08,3.987c0.5,0,0.994-0.062,1.477-0.174L391.831,108.315z"/>
			<path fill="#FFFFFF" d="M351.767,76.221l-1.25-2.064l0.831,1.902C351.487,76.109,351.627,76.161,351.767,76.221z"/>
			<path fill="#FFFFFF" d="M364.395,105.924l2.58,5.906l-2.66-6.703C364.344,105.394,364.371,105.662,364.395,105.924z"/>
			<path fill="#CEA28B" d="M345.122,77.869c-0.093,0.021-0.191,0.058-0.292,0.265c-1.349,2.766,3.514,14.998,6.941,22.167
				c0.383,0.405,1.07,1.055,1.943,1.877c3.522,3.318,6.948,6.688,8.964,9.637c-0.047-4.764-0.65-12.531-3.429-21.117
				C354.808,76.977,349.835,76.836,345.122,77.869z"/>
			<path fill="#CEA28B" d="M326.083,100.155c2.41,1.247,6.534,0.659,9.591-1.367l0.852-0.565l0.546,0.863
				c5.747,9.084,14.528,18.699,22.072,18.699c0.093,0,0.185-0.001,0.278-0.004c1.706-0.055,2.776-0.43,3.014-1.057
				c1-2.64-7.059-10.232-10.093-13.091c-0.969-0.913-1.734-1.634-2.145-2.084c-2.667-2.928-5.152-5.115-9.253-6.938l-0.348,0.131
				c-0.835-2.213-4.15-7.35-5.819-8.315c-0.906-0.524-1.672-0.635-1.998-0.29c-0.423,0.446-0.368,1.691,0.566,3.118l2.382,3.639
				l-3.732-2.232c-2.062-1.234-4.05-1.416-5.594-0.509c-1.723,1.012-2.702,3.208-2.62,5.875
				C323.843,98.009,324.617,99.397,326.083,100.155z"/>
		</g>
		<circle fill="#FFFFFF" cx="323.778" cy="127.778" r="2.725"/>
		<circle fill="#FFFFFF" cx="343.976" cy="127.778" r="2.725"/>
		<circle fill="#FFFFFF" cx="365.645" cy="128.778" r="2.725"/>
		<circle fill="#FFFFFF" cx="331.884" cy="113.989" r="2.725"/>
		<circle fill="#FFFFFF" cx="341.073" cy="85.94" r="2.725"/>
	</g>
	<path fill="#FFE600" d="M383.747,177.987c0,0-6.469,3.705-9.646,4.918c-3.177,1.213-4.331-0.125-4.331-0.125l-0.319,0.244
		c0,0-0.646,0.357-1.663,1.076c0.819,1.072,1.77,2.478,1.909,3.379c0.25,1.625-2.089,3.5-3.138,2.75
		c-0.499-0.357-1.582-1.677-2.58-2.963c-0.233,0.226-0.469,0.457-0.707,0.7c-2.178,2.226-2.387,3.002-1.102,4.495
		c1.285,1.492,5.655,1.085,9.9-0.594c4.244-1.679,14.853-7.631,14.853-7.631L383.747,177.987z"/>
	<path fill="#FFE600" d="M296.504,178.504c-2.75-2-2.732-4.068-2.732-4.068s-0.747-0.432-2.029-0.98
		c-0.612,1.187-1.448,2.598-2.186,3.101c-1.358,0.926-4.058-0.377-3.833-1.646c0.093-0.523,0.65-1.755,1.271-3.021
		c-0.323-0.077-0.652-0.151-0.991-0.219c-3.054-0.61-4.235-0.975-4.784,0.917c-0.549,1.892,2.367,5.834,6.09,8.475
		c3.723,2.641,15.075,8.912,15.075,8.912l3.504-6.071C305.889,183.902,299.254,180.504,296.504,178.504z"/>
</g>
<g>
	<g>
		<path fill="#00BFF3" d="M192.536,77.16c0.464-0.558,1.068-1.187,1.76-1.855c-0.442,0.053-0.867,0.089-1.255,0.089
			c-0.911,0-1.655-0.163-2.265-0.451l-3.796,9.032c0.374,0.041,0.765,0.142,1.169,0.297
			C188.518,83.305,189.732,80.529,192.536,77.16z"/>
		<path fill="#00BFF3" d="M198.41,74.285c-1.789,1.531-3.39,3.017-4.337,4.154c-3.15,3.785-4.143,6.778-4.152,6.809l-0.199-0.063
			c1.917,1.604,4.325,5.374,5.485,7.682c2.365,1.069,4.242,2.283,5.913,3.651c-2.691-6.193-6.428-15.965-4.82-19.261
			c0.349-0.716,0.924-1.18,1.662-1.341c2.168-0.476,4.368-0.651,6.52,0.092l-2.817-4.126
			C200.931,72.892,199.837,73.692,198.41,74.285z"/>
		<path fill="#00BFF3" d="M189.18,100.98c-0.6,0.333-1.247,0.632-1.922,0.889c1.578,2.428,8.341,12.439,13.471,13.979
			c1.008,0.303,1.899,0.539,2.694,0.728C197.021,112.258,191.602,104.691,189.18,100.98z"/>
		<path fill="#FFFFFF" d="M178.379,52.853c-1.289,0-2.56-0.213-3.716-0.512c2.721,3.21,5.294,4.367,7.394,3.26
			c2.058-1.082,3.307-3.909,3.676-6.161c-0.579,0.594-1.261,1.203-2.089,1.813C182.044,52.434,180.195,52.853,178.379,52.853z"/>
		<path fill="#FFFFFF" d="M207.093,74.478c-0.887-2.059-1.161-4.271-0.849-6.436c-0.862,0.651-1.952,1.484-3.134,2.411l6.09,8.918
			L207.093,74.478z"/>
		<path d="M242.246,35.382l17.364-1.989c-2.022-4.376-9.871-19.116-23.131-17.609c-7.27,0.819-13.244,5.647-15.115,7.313
			c0.193,0.173,0.369,0.362,0.529,0.567c1.431-0.357,8.118-1.789,12.96,1.257C239.187,27.649,241.504,33.28,242.246,35.382z"/>
		<circle fill="#E3038C" cx="218.488" cy="26.321" r="2.339"/>
		<path fill="#F5BA3D" d="M239.389,95.452c0.223,0,0.441-0.036,0.661-0.068l-12.752-29.607c-1.185-2.75-3.503-4.771-6.273-5.612
			l14.117,32.504C235.879,94.359,237.545,95.452,239.389,95.452z"/>
		<path d="M195.968,16.274c-4.585-0.911-15.494,1.177-20.589,5.828c-1.348,1.231-2.146,2.532-2.386,3.883
			c0.088-0.036,0.176-0.072,0.265-0.108c2.874-1.182,6.45-2.65,8.408-4.747c-0.016-0.301-0.017-0.598-0.001-0.891l1.997,0.109
			c-0.257,4.676,4.838,11.096,8.363,13.962c5.494,4.468,13,7.724,20.246,8.809c1.562-7.851,2.398-14.244-0.694-18.891
			C209.079,20.472,203.973,17.871,195.968,16.274z"/>
		<path fill="#CF9E76" d="M206.319,145.778l19.142,35.422l-0.779,0.501c-8.301,5.344-10.546,8.584-9.947,9.734
			c0.562,1.077,2.061,1.67,4.22,1.67c2.029,0,4.491-0.551,6.931-1.552l0.846-0.348l0.012,0.024l13.426-7.003l-19.819-38
			L206.319,145.778z"/>
		<path fill="#F47D20" d="M226.731,115.017c1.582,3.674,5.189,6.048,9.189,6.048c1.359,0,2.689-0.275,3.95-0.818
			c2.454-1.058,4.349-3.006,5.336-5.487c0.987-2.481,0.949-5.2-0.107-7.653l-4.233-9.828c-0.482,0.112-0.977,0.174-1.477,0.174
			c-2.642,0-5.027-1.565-6.08-3.987l-14.635-33.693c-0.188-0.011-0.373-0.042-0.564-0.042c-1.361,0-2.689,0.275-3.951,0.819
			c-2.453,1.056-4.348,3.004-5.336,5.486c-0.987,2.481-0.949,5.199,0.107,7.652L226.731,115.017z"/>
		<path fill="#CF9E76" d="M150.841,176.175l-0.829-0.387c-6.098-2.841-11.075-4.471-13.655-4.471c-0.815,0-1.378,0.165-1.544,0.453
			c-1.223,2.116,1.545,6.381,6.3,9.71l0.745,0.521l-0.017,0.03l13.809,7.97l27.23-44.975l-13.721-0.439L150.841,176.175z"/>
		<path fill="#FFFFFF" d="M217.959,113.332l0.513,2.113c1.389-0.391,3.493-1.047,5.527-1.713l-8.34-19.365
			C217.733,102.455,218.025,109.361,217.959,113.332z"/>
		<path fill="#00BFF3" d="M212.752,119.779c-0.116,0.004-0.232,0.006-0.348,0.006c-1.203,0-2.402-0.199-3.589-0.555
			c-0.169,0.019-0.407,0.035-0.737,0.035c-1.245,0-3.707-0.234-7.925-1.501c-6.35-1.907-14.135-14.098-14.887-15.294
			c-2.035,0.464-4.165,0.484-5.987-0.177l-8.204,19.521l43.556,1.802l3.739-0.106l-1.28-5.272
			C216.304,119.19,214.858,119.713,212.752,119.779z"/>
		<path fill="#CF9E76" d="M182.071,23.48c-1.867,1.538-4.333,2.687-6.607,3.645l-0.311,1.184c-2.207,1.916-4.027,4.266-5.291,6.962
			l-0.5,1.071l-0.973-0.673c-0.383-0.264-0.807-0.46-1.258-0.585c-0.371-0.102-0.748-0.153-1.119-0.153
			c-1.322,0-2.389,0.645-2.652,1.604c-0.346,1.255,0.797,2.71,2.496,3.178c0.355,0.098,0.727,0.147,1.105,0.147l1.363-0.049
			l-0.168,1.185c-0.137,0.966-0.205,1.92-0.205,2.838c0,11.605,9.906,21.047,22.082,21.047c11.729,0,21.346-8.761,22.038-19.776
			c-7.619-1.122-15.524-4.538-21.31-9.243C187.561,33.258,183.39,28.194,182.071,23.48z M179.71,34.485
			c0.918-0.525,2.088-0.207,2.613,0.712c0.525,0.919,0.207,2.09-0.711,2.615c-0.92,0.525-2.09,0.207-2.617-0.712
			C178.47,36.18,178.79,35.011,179.71,34.485z M182.988,57.372c-0.745,0.392-1.625,0.667-2.625,0.667
			c-2.397,0-5.492-1.585-9.105-6.902c-0.875-0.394-1.442-0.715-1.527-0.764l1-1.731c0.073,0.043,7.399,4.197,11.727,1.003
			c4.05-2.989,4.247-5.722,4.253-5.837l1.999,0.071c-0.003,0.086-0.057,1.28-0.991,2.956
			C188.349,49.846,186.655,55.443,182.988,57.372z"/>
		<path fill="#CF9E76" d="M191.294,72.929c0.189,0.204,0.849,0.652,2.891,0.383c1.22-0.161,2.277-0.421,3.175-0.762
			c1.004-0.855,2.052-1.714,3.074-2.532c0.333-0.803,0.225-1.449,0.218-1.482l-0.559-3.769c-3.034,1.341-6.404,2.098-9.956,2.111
			l1.023,5.081l-0.055,0.22C191.105,72.18,191.014,72.626,191.294,72.929z"/>
		<circle fill="#594A42" cx="180.661" cy="36.149" r="1.916"/>
		<path fill="#594A42" d="M186.709,43.807c-0.006,0.115-0.203,2.848-4.253,5.837c-4.328,3.194-11.653-0.96-11.727-1.003l-1,1.731
			c0.085,0.049,0.652,0.37,1.527,0.764c3.614,5.317,6.708,6.902,9.105,6.902c1.001,0,1.88-0.275,2.625-0.667
			c3.667-1.929,5.361-7.525,4.729-10.537c0.935-1.676,0.989-2.87,0.991-2.956L186.709,43.807z M182.057,55.601
			c-2.099,1.107-4.672-0.05-7.394-3.26c1.157,0.299,2.427,0.512,3.716,0.512c1.816,0,3.665-0.419,5.265-1.6
			c0.828-0.61,1.51-1.22,2.089-1.813C185.364,51.692,184.114,54.519,182.057,55.601z"/>
		<path fill="#594A42" d="M233.787,26.614c4.63,2.913,6.784,10.065,6.805,10.136l0.238,0.807l21.637-2.479l-0.468-1.207
			c-0.348-0.898-8.718-21.979-25.745-20.076c-8.843,0.998-15.658,7.238-16.773,8.313c-0.32-0.076-0.65-0.126-0.993-0.126
			c-1.976,0-3.629,1.337-4.151,3.147c-0.305-0.692-0.665-1.363-1.094-2.01c-2.847-4.278-8.211-7.077-16.883-8.807
			c-5.095-1.019-16.716,1.187-22.33,6.312c-2.308,2.108-3.342,4.458-3.074,6.984l0.144,1.35l0.937-0.403
			c-1.37,1.468-2.56,3.108-3.508,4.909c-0.279-0.124-0.568-0.228-0.867-0.309c-0.543-0.15-1.098-0.226-1.648-0.226
			c-2.234,0-4.074,1.234-4.58,3.072c-0.645,2.34,1.102,4.868,3.893,5.637c0.238,0.065,0.48,0.117,0.725,0.153
			c-0.064,0.69-0.098,1.374-0.098,2.04c0,12.078,9.76,22.009,22.128,22.965l1.037,5.15c-0.04,0.31-0.055,0.847,0.151,1.416
			l-4.963,11.81c-0.193,0.302-0.344,0.631-0.421,1.003l-0.649,1.545c-1.642-0.33-3.209-0.099-4.578,0.706
			c-2.363,1.389-3.711,4.252-3.607,7.661c0.085,2.742,1.243,4.327,2.461,5.25l-8.858,21.075l1.004,0.422l-10.782,21.422l8.013,0.257
			l-16.862,29.077c-3.851-1.753-10.027-4.275-13.669-4.275c-1.618,0-2.72,0.489-3.276,1.453c-1.746,3.02,0.774,7.803,6.147,11.815
			l17.118,10.127l28.828-47.612l18.831,0.604l18.817,34.82c-11.937,7.851-10.38,10.839-9.861,11.836
			c0.924,1.77,3.052,2.745,5.994,2.745c2.073,0,4.421-0.472,6.837-1.368l17.076-8.662l-20.222-38.775l7.191,0.23l-13.41-20.965
			l4.471-0.129l-1.955-8.051c1.595-0.434,3.82-1.141,5.851-1.81l0.1,0.231c1.898,4.408,6.227,7.257,11.027,7.257
			c1.634,0,3.229-0.331,4.741-0.982c6.077-2.617,8.892-9.69,6.274-15.768l-4.21-9.774l-0.598-1.39
			c1.601,1.505,3.4,2.656,5.052,2.656c0.006,0,0.013,0,0.019,0c1.176-0.006,2.755-0.58,3.597-3.278l-1.909-0.596
			c-0.583,1.868-1.422,1.872-1.698,1.874c-0.003,0-0.006,0-0.009,0c-2.596,0-7.11-5.664-7.747-7.634l-0.272,0.088l-10.025-23.276
			c-1.641-3.808-5.094-6.446-9.098-7.097c-0.631-0.102-1.274-0.159-1.928-0.159c-0.105,0-0.209,0.013-0.314,0.017
			c-1.524,0.039-3.014,0.355-4.428,0.965c-2.879,1.24-5.11,3.509-6.316,6.394l-0.076-0.104c-0.181,0.132-2.004,1.468-4.339,3.28
			c-0.008-0.058-0.015-0.092-0.016-0.093l-0.645-4.353c7.168-3.935,12.029-11.29,12.134-19.726
			c1.118-5.551,1.92-10.439,1.381-14.663c0.78,0.748,1.832,1.214,2.995,1.214c2.393,0,4.34-1.946,4.34-4.339
			c0-0.274-0.032-0.54-0.081-0.801C224.524,25.13,229.974,24.214,233.787,26.614z M190.776,74.942
			c0.61,0.288,1.354,0.451,2.265,0.451c0.388,0,0.813-0.036,1.255-0.089c-0.692,0.669-1.296,1.298-1.76,1.855
			c-2.804,3.369-4.018,6.145-4.388,7.111c-0.403-0.155-0.794-0.256-1.169-0.297L190.776,74.942z M190.137,66.878
			c3.552-0.014,6.922-0.77,9.956-2.111l0.559,3.769c0.006,0.033,0.114,0.68-0.218,1.482c-1.021,0.818-2.07,1.677-3.074,2.532
			c-0.898,0.341-1.955,0.601-3.175,0.762c-2.043,0.27-2.702-0.179-2.891-0.383c-0.28-0.303-0.19-0.748-0.19-0.75l0.055-0.22
			L190.137,66.878z M177.05,96.027c-0.082-2.666,0.897-4.862,2.621-5.874c1.544-0.907,3.529-0.727,5.594,0.509l3.732,2.232
			l-2.383-3.639c-0.934-1.427-0.989-2.671-0.566-3.117c0.327-0.349,1.093-0.235,1.999,0.289c1.667,0.965,4.984,6.103,5.819,8.316
			l0.347-0.132c4.099,1.821,6.585,4.009,9.253,6.938c0.411,0.45,1.177,1.172,2.146,2.086c3.033,2.857,11.09,10.449,10.09,13.089
			c-0.238,0.627-1.308,1.002-3.015,1.057c-7.579,0.269-16.531-9.499-22.349-18.695l-0.546-0.863l-0.852,0.565
			c-3.057,2.025-7.179,2.613-9.591,1.367C177.885,99.397,177.111,98.009,177.05,96.027z M198.098,78.134
			c0.101-0.207,0.2-0.244,0.292-0.265c4.715-1.032,9.688-0.89,14.128,12.828c2.779,8.586,3.382,16.354,3.429,21.118
			c-2.016-2.948-5.441-6.318-8.962-9.636c-0.873-0.822-1.562-1.474-1.945-1.879C201.613,93.131,196.749,80.898,198.098,78.134z
			 M203.423,116.576c-0.795-0.188-1.686-0.425-2.694-0.728c-5.13-1.54-11.893-11.552-13.471-13.979
			c0.676-0.257,1.323-0.556,1.922-0.889C191.602,104.691,197.021,112.258,203.423,116.576z M155.65,190.002l-13.809-7.97l0.017-0.03
			l-0.745-0.521c-4.755-3.329-7.523-7.594-6.3-9.71c0.166-0.288,0.729-0.453,1.544-0.453c2.58,0,7.557,1.63,13.655,4.471
			l0.829,0.387l18.318-31.587l13.721,0.439L155.65,190.002z M240.17,184.227l-13.426,7.003l-0.012-0.024l-0.846,0.348
			c-2.44,1.001-4.901,1.552-6.931,1.552c-2.16,0-3.658-0.593-4.22-1.67c-0.6-1.15,1.646-4.391,9.947-9.734l0.779-0.501
			l-19.142-35.422l14.033,0.449L240.17,184.227z M226.106,144.41l-64.036-2.05l9.327-18.532l42.674,1.767L226.106,144.41z
			 M214.632,123.616l-43.556-1.802l8.204-19.521c1.822,0.661,3.952,0.641,5.987,0.177c0.751,1.196,8.537,13.387,14.887,15.294
			c4.218,1.267,6.68,1.501,7.925,1.501c0.33,0,0.568-0.017,0.737-0.035c1.187,0.355,2.387,0.555,3.589,0.555
			c0.116,0,0.232-0.002,0.348-0.006c2.105-0.066,3.552-0.589,4.339-1.542l1.28,5.272L214.632,123.616z M218.472,115.445
			l-0.513-2.113c0.066-3.971-0.226-10.877-2.3-18.965l8.34,19.365C221.965,114.398,219.861,115.055,218.472,115.445z
			 M227.299,65.776l12.752,29.607c-0.22,0.032-0.438,0.068-0.661,0.068c-1.845,0-3.511-1.093-4.246-2.784l-14.117-32.504
			C223.796,61.006,226.114,63.026,227.299,65.776z M208.823,66.035c0.988-2.482,2.883-4.431,5.336-5.486
			c1.262-0.544,2.59-0.819,3.951-0.819c0.191,0,0.376,0.031,0.564,0.042l14.635,33.693c1.053,2.422,3.439,3.987,6.08,3.987
			c0.5,0,0.994-0.062,1.477-0.174l4.233,9.828c1.057,2.453,1.095,5.172,0.107,7.653c-0.987,2.481-2.882,4.43-5.336,5.487
			c-1.261,0.543-2.591,0.818-3.95,0.818c-4,0-7.607-2.374-9.189-6.048l-17.801-41.33C207.874,71.234,207.836,68.516,208.823,66.035z
			 M206.243,68.043c-0.312,2.164-0.038,4.377,0.849,6.436l2.107,4.894l-6.09-8.918C204.292,69.527,205.381,68.694,206.243,68.043z
			 M204.481,76.008c-2.151-0.743-4.351-0.567-6.52-0.092c-0.738,0.161-1.312,0.625-1.662,1.341
			c-1.608,3.296,2.129,13.067,4.82,19.261c-1.671-1.368-3.548-2.582-5.913-3.651c-1.161-2.308-3.569-6.077-5.485-7.682l0.199,0.063
			c0.009-0.03,1.002-3.023,4.152-6.809c0.947-1.138,2.548-2.623,4.337-4.154c1.427-0.593,2.521-1.393,3.254-2.403L204.481,76.008z
			 M190.035,64.881c-12.176,0-22.082-9.441-22.082-21.047c0-0.918,0.068-1.872,0.205-2.838l0.168-1.185l-1.363,0.049
			c-0.379,0-0.75-0.05-1.105-0.147c-1.699-0.468-2.842-1.923-2.496-3.178c0.264-0.959,1.33-1.604,2.652-1.604
			c0.371,0,0.748,0.052,1.119,0.153c0.451,0.125,0.875,0.321,1.258,0.585l0.973,0.673l0.5-1.071
			c1.264-2.696,3.084-5.046,5.291-6.962l0.311-1.184c2.274-0.958,4.74-2.107,6.607-3.645c1.318,4.714,5.49,9.777,8.692,12.381
			c5.786,4.705,13.691,8.121,21.31,9.243C211.381,56.12,201.763,64.881,190.035,64.881z M212.271,43.119
			c-7.246-1.085-14.752-4.341-20.246-8.809c-3.525-2.866-8.62-9.286-8.363-13.962l-1.997-0.109c-0.016,0.293-0.016,0.59,0.001,0.891
			c-1.958,2.097-5.533,3.566-8.408,4.747c-0.089,0.036-0.177,0.072-0.265,0.108c0.24-1.351,1.038-2.651,2.386-3.883
			c5.096-4.651,16.004-6.739,20.589-5.828c8.005,1.597,13.111,4.198,15.609,7.954C214.668,28.875,213.832,35.268,212.271,43.119z
			 M218.488,28.66c-1.289,0-2.338-1.049-2.338-2.339c0-1.29,1.049-2.339,2.338-2.339c1.29,0,2.34,1.049,2.34,2.339
			C220.827,27.611,219.778,28.66,218.488,28.66z M221.893,23.664c-0.16-0.205-0.335-0.395-0.529-0.567
			c1.871-1.666,7.845-6.494,15.115-7.313c13.26-1.507,21.109,13.233,23.131,17.609l-17.364,1.989
			c-0.742-2.102-3.059-7.732-7.393-10.461C230.011,21.875,223.324,23.306,221.893,23.664z"/>
		<path fill="#CF9E76" d="M206.985,102.18c3.52,3.317,6.946,6.688,8.962,9.636c-0.047-4.765-0.65-12.532-3.429-21.118
			c-4.439-13.718-9.413-13.86-14.128-12.828c-0.092,0.021-0.191,0.058-0.292,0.265c-1.349,2.765,3.516,14.997,6.942,22.167
			C205.423,100.706,206.112,101.357,206.985,102.18z"/>
		<path fill="#CF9E76" d="M179.351,100.155c2.412,1.246,6.535,0.658,9.591-1.367l0.852-0.565l0.546,0.863
			c5.818,9.196,14.77,18.964,22.349,18.695c1.707-0.055,2.777-0.43,3.015-1.057c0.999-2.64-7.058-10.231-10.09-13.089
			c-0.97-0.914-1.736-1.636-2.146-2.086c-2.668-2.929-5.155-5.116-9.253-6.938l-0.347,0.132c-0.835-2.214-4.152-7.352-5.819-8.316
			c-0.906-0.524-1.672-0.638-1.999-0.289c-0.423,0.446-0.368,1.69,0.566,3.117l2.383,3.639l-3.732-2.232
			c-2.064-1.235-4.05-1.416-5.594-0.509c-1.723,1.012-2.703,3.208-2.621,5.874C177.111,98.009,177.885,99.397,179.351,100.155z"/>
		<g>
			<polygon fill="#E3038C" points="190.499,124.619 190.499,143.27 193.947,143.381 193.947,124.762 			"/>
			<polygon fill="#E3038C" points="180.773,124.216 180.773,142.959 188.945,143.221 188.945,124.555 			"/>
			<polygon fill="#E3038C" points="195.501,124.826 195.501,143.43 205.378,143.747 205.378,125.235 			"/>
			<polygon fill="#E3038C" points="173.476,123.914 173.476,142.725 179.219,142.909 179.219,124.151 			"/>
			<polygon fill="#E3038C" points="171.397,123.828 162.07,142.36 171.922,142.676 171.922,123.849 			"/>
			<polygon fill="#E3038C" points="206.933,125.299 206.933,143.796 211.295,143.936 211.295,125.479 			"/>
			<polygon fill="#E3038C" points="226.106,144.41 214.071,125.595 212.85,125.544 212.85,143.985 			"/>
			<polygon fill="#F5F5F5" points="171.922,123.849 171.922,142.676 173.476,142.725 173.476,123.914 			"/>
			<polygon fill="#F5F5F5" points="179.219,124.151 179.219,142.909 180.773,142.959 180.773,124.216 			"/>
			<polygon fill="#F5F5F5" points="188.945,124.555 188.945,143.221 190.499,143.27 190.499,124.619 			"/>
			<polygon fill="#F5F5F5" points="193.947,124.762 193.947,143.381 195.501,143.43 195.501,124.826 			"/>
			<polygon fill="#F5F5F5" points="205.378,125.235 205.378,143.747 206.933,143.796 206.933,125.299 			"/>
			<polygon fill="#F5F5F5" points="212.85,125.544 211.295,125.479 211.295,143.936 212.85,143.985 			"/>
		</g>
	</g>
	<path fill="#E3038C" d="M236.967,178.05c0,0-6.469,3.705-9.645,4.918c-3.177,1.213-4.331-0.125-4.331-0.125l-0.319,0.244
		c0,0-0.331,0.184-0.889,0.548c0.872,1.219,1.625,2.506,1.461,3.22c-0.359,1.562-5.172,4.812-6.422,3.688
		c-0.334-0.301-0.785-0.85-1.265-1.488c-1.25,1.48-1.23,2.235-0.167,3.471c1.285,1.492,5.655,1.085,9.899-0.594
		c4.244-1.679,14.853-7.631,14.853-7.631L236.967,178.05z"/>
	<path fill="#E3038C" d="M149.724,178.566c-2.75-2-2.732-4.068-2.732-4.068s-0.626-0.363-1.719-0.847
		c-0.718,1.429-1.585,2.852-2.345,3.042c-1.555,0.391-6.638-2.418-6.204-4.043c0.088-0.33,0.275-0.787,0.512-1.302
		c-1.624-0.265-2.387-0.108-2.796,1.301c-0.549,1.892,2.367,5.834,6.09,8.475c3.723,2.641,15.075,8.912,15.075,8.912l3.504-6.071
		C159.109,183.965,152.474,180.566,149.724,178.566z"/>
</g>
</svg>